<?xml version="1.0" standalone="no"?>
<!DOCTYPE svg PUBLIC "-//W3C//DTD SVG 1.1//EN" "http://www.w3.org/Graphics/SVG/1.1/DTD/svg11.dtd">
<svg xmlns="http://www.w3.org/2000/svg">
<defs >
<font id="Commissioner" horiz-adv-x="1169" ><font-face
    font-family="Commissioner Thin Light"
    units-per-em="2000"
    panose-1="0 0 0 0 0 0 0 0 0 0"
    ascent="2034"
    descent="-412"
    alphabetic="0" />
<glyph unicode=" " horiz-adv-x="383" />
<glyph unicode="!" horiz-adv-x="457" d="M177 486Q175 735 167 979T148 1464L313 1470Q304 1228 295 982T284 488L177 486ZM228 -21Q193 -21 166 -6T125 35T111 96Q111 150 143 180T229 211Q265 211 291 197T332 158T346 96Q346 44 315 12T228 -21Z" />
<glyph unicode="&quot;" horiz-adv-x="708" d="M122 894Q120 1044 112 1191T93 1485L250 1488Q241 1343 233 1195T222 896L122 894ZM440 894Q438 1044 430 1191T411 1485L568 1488Q559 1343 551 1195T540 896L440 894Z" />
<glyph unicode="#" horiz-adv-x="1357" d="M36 319V423Q128 423 213 423T374 423H868Q943 423 1028 423T1205 423V319Q1114 319 1029 319T868 319H374Q299 319 214 319T36 319ZM246 0Q268 103 287 199T333 421L427 877Q445 965 459 1036T488 1175T517 1313H625Q611
1243 597 1176T569 1037T536 876L442 421Q416 295 397 200T355 0H246ZM152 884V988Q244 988 329 988T490 988H984Q1059 988 1144 988T1321 988V884Q1229 884 1144 884T984 884H490Q415 884 330 884T152 884ZM717 0Q739 103 758 199T804 421L897 877Q916 965 930
1037T959 1175T987 1313H1096Q1082 1243 1068 1176T1040 1037T1006 876L912 421Q887 295 868 200T826 0H717Z" />
<glyph unicode="$" horiz-adv-x="1117" d="M577 -20Q492 -20 407 -4T250 36T135 87L149 210Q213 175 281 150T422 111T573 97Q666 97 741 123T860 208T905 365Q905 443 860 492T731 578T529 652Q398 694 306 741T166 857T117 1030Q117 1133 166 1215T312 1345T551
1393Q611 1393 669 1384T780 1360T876 1327T949 1289L934 1163Q876 1202 812 1226T682 1263T560 1275Q478 1275 406 1250T289 1171T244 1030Q244 960 281 915T397 834T602 757Q765 704 859 650T992 527T1031 365Q1031 257 983 170T835 32T577 -20ZM516 -274Q516
-185 516 -102T516 62T516 223T516 384V948Q516 1029 516 1109T516 1269T516 1434T516 1606H623Q623 1518 623 1434T623 1270T623 1109T623 948V384Q623 303 623 223T623 63T623 -101T623 -274H516Z" />
<glyph unicode="%" horiz-adv-x="1729" d="M394 0Q457 110 517 216T655 458L937 954Q990 1049 1034 1127T1120 1277T1205 1426H1329Q1286 1349 1245 1277T1160 1127T1061 954L779 458Q702 322 642 216T519 0H394ZM438 747Q332 747 250 790T120 912T73 1097Q73
1199 120 1278T250 1404T440 1451Q546 1451 628 1405T756 1279T803 1097Q803 991 757 913T628 791T438 747ZM438 845Q560 845 628 911T696 1097Q696 1173 665 1230T577 1320T440 1353Q320 1353 251 1282T181 1097Q181 978 250 912T438 845ZM1287 -21Q1181 -21 1099
22T969 145T922 330Q922 431 969 510T1099 637T1289 684Q1395 684 1477 637T1605 511T1652 330Q1652 224 1606 145T1477 23T1287 -21ZM1287 77Q1409 77 1477 144T1545 329Q1545 405 1514 463T1426 553T1289 585Q1169 585 1100 514T1030 329Q1030 211 1099 144T1287
77Z" />
<glyph unicode="&amp;" horiz-adv-x="1451" d="M1246 0Q1179 67 1110 136T972 272L504 738Q407 834 351 923T295 1122Q295 1224 340 1298T462 1412T631 1452Q723 1452 798 1415T917 1308T962 1141Q962 1058 932 997T852 890T742 813T625 758L563 841Q639 873 702
911T802 1005T839 1139Q839 1232 782 1288T636 1345Q539 1345 483 1282T426 1123Q426 1042 469 972T606 808L1068 347Q1156 260 1242 173T1415 0H1246ZM543 -20Q397 -20 300 32T155 173T106 367Q106 489 161 576T301 725T474 826L532 738Q447 699 380 648T273 531T234
377Q234 292 271 229T381 130T556 95Q632 95 696 120T818 197T936 332L1018 258L1025 229H1000Q938 150 871 95T725 10T543 -20ZM1085 318L1001 394Q1061 489 1117 577T1231 757L1341 690Q1277 596 1214 505T1085 318Z" />
<glyph unicode="&apos;" horiz-adv-x="391" d="M122 894Q120 1044 112 1191T93 1485L250 1488Q241 1343 233 1195T222 896L122 894Z" />
<glyph unicode="(" horiz-adv-x="756" d="M570 -236Q474 -163 393 -75T252 121T159 359T126 648Q126 806 159 937T252 1175T393 1371T570 1531L668 1484Q561 1399 468 1284T316 1012T258 648Q258 441 316 285T467 12T668 -189L570 -236Z" />
<glyph unicode=")" horiz-adv-x="756" d="M186 -236L87 -189Q195 -104 288 12T439 284T497 648Q497 854 440 1010T289 1283T87 1484L186 1531Q282 1459 363 1371T504 1175T597 936T630 648Q630 489 597 359T504 120T363 -75T186 -236Z" />
<glyph unicode="*" horiz-adv-x="936" d="M827 755Q733 819 640 881T451 1006Q352 1063 254 1119T56 1231L109 1318Q204 1255 297 1192T486 1065Q584 1010 682 954T879 842L827 755ZM109 755L56 842Q155 898 253 954T451 1067Q546 1130 639 1192T827 1318L879
1231Q780 1176 682 1120T486 1008Q392 945 298 882T109 755ZM417 583Q421 697 425 810T434 1038Q430 1150 426 1263T417 1490H519Q514 1377 510 1264T502 1038Q506 924 510 811T519 583H417Z" />
<glyph unicode="+" horiz-adv-x="1171" d="M526 122Q526 214 526 300T526 460V730Q526 805 526 890T526 1068H645Q645 976 645 891T645 730V460Q645 386 645 300T645 122H526ZM129 536V654Q221 654 306 654T466 654H704Q779 654 864 654T1041 654V536Q950 536
865 536T704 536H466Q392 536 307 536T129 536Z" />
<glyph unicode="," horiz-adv-x="449" d="M72 -314Q111 -258 134 -204T166 -90T176 40Q176 83 176 127T176 215L246 220Q293 216 314 184T336 103Q336 44 321 -15T280 -129T220 -230T149 -312L72 -314Z" />
<glyph unicode="-" horiz-adv-x="844" d="M129 535V652Q209 652 283 652T422 652Q487 652 561 652T714 652V535Q635 535 561 535T422 535Q358 535 284 535T129 535Z" />
<glyph unicode="." horiz-adv-x="457" d="M228 -21Q193 -21 166 -6T125 35T111 96Q111 150 143 180T229 211Q265 211 291 197T332 158T346 96Q346 44 315 12T228 -21Z" />
<glyph unicode="/" horiz-adv-x="885" d="M66 0Q115 112 160 216T265 456L482 952Q544 1094 591 1202T689 1426H819Q786 1349 754 1276T687 1124T610 948L396 456Q336 320 290 215T196 0H66Z" />
<glyph unicode="0" horiz-adv-x="1299" d="M654 -20Q517 -20 416 32T248 180T150 404T117 688Q117 901 178 1060T357 1307T649 1396Q782 1396 881 1345T1047 1201T1147 977T1181 688Q1181 471 1120 312T942 67T654 -20ZM650 99Q791 99 877 176T1004 387T1044 688Q1044
867 1002 999T873 1203T650 1276Q512 1276 425 1200T296 991T255 688Q255 517 295 384T422 175T650 99Z" />
<glyph unicode="1" horiz-adv-x="842" d="M103 1002L69 1113Q190 1179 309 1244T549 1376L546 1248Q435 1186 325 1125T103 1002ZM483 0Q483 111 483 214T483 439V877Q483 985 483 1093T483 1311L549 1376L615 1370Q615 1259 615 1140T615 895V439Q615 317 615
214T615 0H483Z" />
<glyph unicode="2" horiz-adv-x="1101" d="M100 0V98Q163 154 226 209T353 320Q501 450 607 563T769 783T825 996Q825 1135 750 1205T522 1275Q474 1275 423 1266T320 1241T215 1198T110 1137L94 1273Q138 1298 190 1320T301 1359T420 1386T540 1396Q675 1396
769 1349T912 1215T961 1009Q961 893 907 779T747 544T486 289L257 90L234 119H521Q638 119 755 119T990 119V0H100Z" />
<glyph unicode="3" horiz-adv-x="1135" d="M551 -20Q489 -20 427 -12T304 12T191 47T93 91L108 221Q163 191 218 168T329 130T437 108T541 100Q725 100 808 176T891 371Q891 512 777 587T461 662Q431 662 402 662T343 662V775Q371 775 399 775T455 775Q592 775
677 811T803 908T843 1047Q843 1164 759 1219T547 1275Q500 1275 450 1266T347 1239T243 1195T141 1133L124 1266Q167 1293 218 1316T327 1358T443 1386T561 1396Q683 1396 777 1356T925 1241T978 1065Q978 979 942 911T845 799T712 737V722Q766 713 821 687T923
617T998 510T1026 363Q1026 256 974 169T817 31T551 -20Z" />
<glyph unicode="4" horiz-adv-x="1192" d="M737 0Q737 94 737 178T737 375L740 403V870Q740 978 740 1085T740 1301L843 1335Q785 1252 730 1173T618 1015L374 669Q325 599 277 531T179 393L174 443H772H799Q850 443 911 443T1033 443T1140 443V324Q1094 324 1034
324T912 324T799 324H64V417Q107 478 159 552T264 701T363 841L542 1095Q591 1164 639 1233T736 1370H868Q868 1246 868 1127T868 888V375Q868 262 868 178T868 0H737Z" />
<glyph unicode="5" horiz-adv-x="1145" d="M546 -20Q485 -20 423 -12T302 12T190 48T93 92L108 221Q163 191 218 168T327 130T435 108T538 100Q720 100 810 189T901 439Q901 557 855 627T730 729T557 761Q474 761 400 741T241 661L180 667V877Q180 1010 180 1134T180
1370H952V1252Q831 1252 709 1252T465 1252H260L309 1299Q309 1200 309 1101T307 904V805H323Q381 839 451 858T600 878Q720 878 819 831T977 687T1036 443Q1036 304 980 200T815 38T546 -20Z" />
<glyph unicode="6" horiz-adv-x="1208" d="M631 -20Q466 -20 352 57T177 285T117 653Q117 831 152 969T254 1203T420 1347T648 1396Q700 1396 750 1389T848 1368T939 1336T1020 1295L1002 1166Q962 1194 919 1214T832 1248T743 1267T654 1274Q513 1274 424 1203T291
992T248 649Q248 468 291 346T419 162T627 100Q746 100 821 150T932 279T968 447Q968 535 933 607T825 723T637 766Q590 766 542 757T444 727T344 670T241 577Q229 605 226 627T225 671T240 719L267 717Q309 757 355 788T451 840T554 871T665 882Q800 882 897 827T1047
675T1100 452Q1100 330 1048 222T891 47T631 -20Z" />
<glyph unicode="7" horiz-adv-x="1044" d="M230 0Q293 138 357 276T483 549L678 972Q715 1050 750 1127T822 1283L848 1251H561Q434 1251 307 1251T50 1251V1370H961V1277Q904 1152 849 1031T734 780L605 497Q549 375 492 250T377 0H230Z" />
<glyph unicode="8" horiz-adv-x="1208" d="M604 -20Q436 -20 326 34T162 179T108 384Q108 497 154 571T267 686T393 740V755Q333 771 279 811T191 914T156 1058Q156 1159 211 1235T367 1353T604 1396Q740 1396 840 1354T996 1235T1051 1058Q1051 976 1017 914T929
812T813 755V740Q873 727 939 686T1052 571T1099 384Q1099 271 1045 180T882 34T604 -20ZM604 101Q732 101 812 139T930 243T967 393Q967 491 919 556T789 652T603 684Q502 684 420 653T289 556T241 393Q241 309 278 243T396 139T604 101ZM604 794Q756 794 838
864T921 1045Q921 1158 835 1217T604 1277Q460 1277 374 1218T287 1045Q287 972 324 915T431 826T604 794Z" />
<glyph unicode="9" horiz-adv-x="1208" d="M560 -20Q508 -20 458 -13T360 7T269 40T188 81L206 209Q246 182 289 162T376 128T466 108T554 101Q695 101 784 172T917 383T960 726Q960 907 917 1029T789 1213T581 1275Q462 1275 387 1225T276 1096T241 928Q241 840
275 768T383 653T571 609Q618 609 666 618T764 648T865 705T967 798Q979 770 982 748T983 704T968 656L941 658Q899 618 853 587T758 535T655 504T543 493Q409 493 311 548T161 700T108 923Q108 1045 160 1153T317 1328T577 1396Q742 1396 856 1319T1031 1091T1091
723Q1091 544 1056 406T954 173T788 29T560 -20Z" />
<glyph unicode=":" horiz-adv-x="457" d="M228 781Q193 781 166 796T125 837T111 898Q111 952 143 982T229 1013Q265 1013 291 999T332 960T346 898Q346 846 315 814T228 781ZM228 -21Q193 -21 166 -6T125 35T111 96Q111 150 143 180T229 211Q265 211 291 197T332
158T346 96Q346 44 315 12T228 -21Z" />
<glyph unicode=";" horiz-adv-x="457" d="M228 781Q193 781 166 796T125 837T111 898Q111 952 143 982T229 1013Q265 1013 291 999T332 960T346 898Q346 846 315 814T228 781ZM80 -314Q119 -258 142 -204T174 -90T184 40Q184 83 184 127T184 215L254 220Q301 216
322 184T344 103Q344 44 329 -15T288 -129T228 -230T157 -312L80 -314Z" />
<glyph unicode="&lt;" horiz-adv-x="1131" d="M1001 156Q911 195 825 232T662 303L465 388Q391 421 306 457T129 533V654Q220 693 306 730T465 798L662 884Q738 917 824 954T1001 1030V905Q890 856 775 807T546 706L304 601V586L545 480Q660 431 775 381T1001 282V156Z" />
<glyph unicode="=" horiz-adv-x="1131" d="M133 317V435Q224 435 310 435T470 435H661Q736 435 821 435T998 435V317Q906 317 821 317T661 317H470Q396 317 310 317T133 317ZM133 755V873Q224 873 310 873T470 873H661Q736 873 821 873T998 873V755Q906 755 821
755T661 755H470Q396 755 310 755T133 755Z" />
<glyph unicode="&gt;" horiz-adv-x="1131" d="M129 156V282Q240 331 356 381T585 480L827 586V601L585 706Q471 756 356 806T129 905V1030Q220 991 306 954T468 884L666 798Q739 767 825 730T1001 654V533Q912 494 826 458T666 388L468 303Q392 270 306 233T129 156Z" />
<glyph unicode="?" horiz-adv-x="843" d="M428 434Q316 434 252 488T187 633Q187 696 216 744T293 833T394 913Q447 952 495 994T575 1087T607 1203Q607 1291 547 1336T379 1381Q332 1381 285 1373T189 1347T90 1304L82 1425Q107 1436 141 1448T215 1472T301 1491T397
1498Q498 1498 574 1467T692 1374T734 1221Q734 1130 695 1063T597 944T480 850Q411 800 359 751T307 638Q307 568 351 541T454 514Q493 514 524 522T576 539L583 458Q566 452 541 447T486 438T428 434ZM387 -21Q351 -21 325 -6T284 35T269 96Q269 150 301 180T387
211Q424 211 450 197T490 158T505 96Q505 44 474 12T387 -21Z" />
<glyph unicode="@" horiz-adv-x="1760" d="M944 -257Q710 -257 540 -179T265 34T126 336T127 685Q161 854 238 977T423 1182T662 1301T936 1340Q1119 1340 1263 1274T1503 1090T1634 819T1636 491Q1617 393 1578 324T1488 210T1386 146T1291 125Q1214 125 1166
147T1090 205T1053 277H1041Q989 208 915 176T775 144Q657 144 586 209T491 379T492 605Q515 716 568 798T699 926T869 972Q927 972 976 956T1065 912T1133 851H1146L1170 953L1272 960Q1248 844 1222 719T1169 469L1161 428Q1139 317 1173 269T1280 220Q1325 220
1366 241T1442 300T1502 392T1540 510Q1571 663 1542 796T1432 1031T1224 1189T934 1247Q758 1247 613 1184T366 993T223 668Q188 507 217 358T338 92T582 -94T944 -163Q1023 -163 1115 -149T1307 -99T1508 5V-104Q1428 -158 1334 -191T1140 -241T944 -257ZM802
247Q868 247 932 284T1044 404L1118 756Q1077 805 1022 835T889 866Q771 866 700 787T603 589Q583 494 598 417T664 293T802 247Z" />
<glyph unicode="A" horiz-adv-x="1365" d="M63 0Q106 116 153 242T243 484L424 973Q473 1104 512 1211T592 1426H780Q820 1316 859 1210T946 972L1126 481Q1169 363 1215 239T1302 0H1156Q1110 128 1062 263T970 520L693 1294H677L398 527Q353 402 304 266T207
0H63ZM306 375L316 489H1062L1070 375H306Z" />
<glyph unicode="B" horiz-adv-x="1282" d="M626 0Q528 0 445 0T299 0T197 0Q197 120 197 231T197 473V950Q197 1083 197 1194T197 1426Q308 1426 438 1426T708 1426Q826 1426 910 1403T1049 1336T1129 1230T1155 1088Q1155 997 1123 929T1035 816T908 747V731Q978
717 1043 680T1151 572T1194 390Q1194 308 1166 237T1073 113T899 30T626 0ZM335 120H636Q786 120 877 154T1008 250T1049 399Q1049 543 948 604T667 666H304V781H670Q791 781 866 820T975 924T1010 1062Q1010 1191 931 1248T697 1306H335Q335 1214 335 1124T335
927V495Q335 390 335 301T335 120Z" />
<glyph unicode="C" horiz-adv-x="1371" d="M832 -21Q664 -21 530 35T301 190T157 424T107 716Q107 932 196 1098T442 1357T805 1451Q876 1451 943 1441T1069 1413T1179 1375T1265 1335L1251 1197Q1174 1242 1100 1270T955 1311T814 1324Q650 1324 524 1250T325
1039T253 715Q253 589 290 479T401 284T586 153T842 105Q894 105 945 111T1048 131T1148 168T1242 223L1256 86Q1214 59 1164 39T1059 5T947 -14T832 -21Z" />
<glyph unicode="D" horiz-adv-x="1475" d="M197 0Q197 120 197 231T197 473V950Q197 1083 197 1194T197 1426Q288 1426 367 1426T523 1426T679 1426Q845 1426 973 1379T1189 1239T1322 1017T1368 719Q1368 568 1328 438T1201 209T974 56T631 0Q548 0 478 0T341
0T197 0ZM338 120H633Q851 120 980 199T1165 414T1222 722Q1222 855 1189 962T1086 1147T910 1265T656 1306H338Q338 1214 338 1124T338 927V496Q338 391 338 301T338 120Z" />
<glyph unicode="E" horiz-adv-x="1185" d="M197 0Q197 120 197 231T197 473V950Q197 1083 197 1194T197 1426H1066V1303Q964 1303 847 1303T572 1303H259L335 1407Q335 1287 335 1175T335 931V493Q335 363 335 252T335 21L265 123H584Q719 123 838 123T1067 123V0H197ZM305
664V783H587Q727 783 828 783T1024 783V664Q925 664 824 664T585 664H305Z" />
<glyph unicode="F" horiz-adv-x="1146" d="M197 0Q197 120 197 231T197 473V950Q197 1083 197 1194T197 1426H1048V1303Q946 1303 830 1303T554 1303H275L336 1407Q336 1287 336 1176T336 930V473Q336 342 336 231T336 0H197ZM303 657V777H568Q709 777 810 777T1006
777V657Q906 657 805 657T567 657H303Z" />
<glyph unicode="G" horiz-adv-x="1468" d="M864 -20Q678 -20 537 36T300 192T156 426T107 717Q107 931 195 1097T444 1357T818 1451Q893 1451 963 1441T1096 1413T1210 1375T1299 1334L1284 1197Q1202 1242 1124 1270T972 1311T825 1324Q698 1324 594 1283T412
1162T294 970T252 716Q252 587 288 476T400 281T593 150T872 103Q927 103 983 108T1094 126T1203 157T1307 204L1324 67Q1289 52 1239 37T1129 8T1001 -12T864 -20ZM1189 65Q1189 170 1189 247T1189 403Q1189 495 1189 566T1189 709H1324Q1324 637 1324 566T1324
403Q1324 325 1324 248T1324 67L1189 65Z" />
<glyph unicode="H" horiz-adv-x="1499" d="M1161 0Q1161 120 1161 231T1161 473V950Q1161 1083 1161 1194T1161 1426H1302Q1302 1306 1302 1195T1302 950V473Q1302 342 1302 231T1302 0H1161ZM197 0Q197 120 197 231T197 473V950Q197 1083 197 1194T197 1426H338Q338
1306 338 1195T338 950V473Q338 342 338 231T338 0H197ZM282 661V785H1223V661H282Z" />
<glyph unicode="I" horiz-adv-x="540" d="M199 0Q199 120 199 231T199 473V950Q199 1083 199 1194T199 1426H341Q341 1306 341 1195T341 950V473Q341 342 341 231T341 0H199Z" />
<glyph unicode="J" horiz-adv-x="567" d="M37 -317Q96 -254 138 -190T204 -50T228 129V522V950Q228 1083 228 1194T228 1426H368Q368 1306 368 1195T368 950V573Q368 452 368 338T368 114Q368 34 354 -31T314 -148T256 -241T189 -317H37Z" />
<glyph unicode="K" horiz-adv-x="1327" d="M1080 0Q977 106 887 198T711 378L418 678H318V796H418L671 1048Q760 1137 847 1224T1049 1426H1226Q1111 1312 1002 1204T785 988L511 716L509 777L814 462Q885 389 966 305T1124 141T1261 0H1080ZM197 0Q197 120 197
231T197 473V950Q197 1083 197 1194T197 1426H337Q337 1306 337 1195T337 950V473Q337 342 337 231T337 0H197Z" />
<glyph unicode="L" horiz-adv-x="1140" d="M197 0Q197 120 197 231T197 473V950Q197 1083 197 1194T197 1426H338Q338 1306 338 1195T338 950V494Q338 363 338 252T338 21L282 127H539Q656 127 746 127T912 127T1069 127V0H197Z" />
<glyph unicode="M" horiz-adv-x="1912" d="M143 0Q158 117 172 230T202 477L261 946Q278 1077 291 1189T321 1426H462Q529 1266 590 1116T713 818L954 232H966L1206 818Q1267 967 1328 1116T1455 1426H1596Q1611 1303 1624 1191T1654 946L1712 473Q1728 343 1741
232T1769 0H1635Q1610 201 1589 381T1548 719L1493 1169H1482L1286 684Q1214 507 1143 330T1009 0H912Q873 96 826 210T730 446T632 681L432 1169H421L367 719Q348 563 326 382T280 0H143Z" />
<glyph unicode="N" horiz-adv-x="1510" d="M197 0Q197 120 197 231T197 473V950Q197 1083 197 1194T197 1426H327Q462 1237 587 1060T836 711L1166 248H1178V950Q1178 1083 1178 1194T1178 1426H1313Q1313 1306 1313 1195T1313 950V473Q1313 342 1313 231T1313
0H1186Q1074 158 950 333T675 718L344 1184H332V473Q332 342 332 231T332 0H197Z" />
<glyph unicode="O" horiz-adv-x="1635" d="M825 -21Q646 -21 512 37T287 198T152 433T107 715Q107 922 191 1089T435 1353T819 1451Q990 1451 1122 1395T1344 1237T1481 1002T1528 715Q1528 505 1444 339T1202 76T825 -21ZM820 105Q967 105 1073 155T1247 291T1349
487T1382 715Q1382 843 1347 954T1241 1148T1065 1279T820 1326Q676 1326 570 1277T393 1141T288 946T253 715Q253 594 287 484T390 289T566 154T820 105Z" />
<glyph unicode="P" horiz-adv-x="1243" d="M197 0Q197 120 197 231T197 473V950Q197 1083 197 1194T197 1426Q277 1426 401 1426T683 1426Q843 1426 947 1383T1102 1252T1153 1029Q1153 901 1106 802T944 645T631 587Q580 587 523 587T411 587T317 587V705H608Q747
705 836 737T967 841T1010 1028Q1010 1124 978 1180T896 1263T787 1298T674 1306H267L336 1407Q336 1287 336 1175T336 931V473Q336 342 336 231T336 0H197Z" />
<glyph unicode="Q" horiz-adv-x="1635" d="M1313 -334Q1250 -282 1187 -231T1059 -128L894 6L973 90L1168 -61Q1233 -110 1297 -160T1440 -271L1313 -334ZM825 -21Q646 -21 512 37T287 198T152 433T107 715Q107 922 191 1089T435 1353T819 1451Q990 1451 1122
1395T1344 1237T1481 1002T1528 715Q1528 505 1444 339T1202 76T825 -21ZM820 105Q967 105 1073 155T1247 291T1349 487T1382 715Q1382 843 1347 954T1241 1148T1065 1279T820 1326Q676 1326 570 1277T393 1141T288 946T253 715Q253 594 287 484T390 289T566 154T820
105Z" />
<glyph unicode="R" horiz-adv-x="1328" d="M197 0Q197 120 197 231T197 473V950Q197 1083 197 1194T197 1426Q252 1426 323 1426T478 1426T662 1426Q822 1426 927 1388T1084 1266T1136 1047Q1136 932 1092 836T941 682T652 623L692 687L925 407Q979 342 1040 269T1159
125T1263 0H1096Q1020 92 950 177T810 346L550 666L637 601H311V719H591Q728 719 817 750T948 851T991 1035Q991 1133 960 1188T878 1268T769 1299T656 1306H245L335 1407Q335 1285 335 1174T335 931V473Q335 342 335 231T335 0H197Z" />
<glyph unicode="S" horiz-adv-x="1165" d="M601 -20Q511 -20 422 -4T257 37T135 89L151 224Q218 188 289 161T436 119T594 104Q688 104 765 131T887 217T933 375Q933 456 888 508T758 599T551 677Q413 720 316 770T168 892T117 1073Q117 1180 169 1265T323 1401T574
1452Q637 1452 698 1443T814 1418T915 1383T991 1343L975 1205Q915 1247 848 1273T713 1313T587 1326Q502 1326 429 1300T310 1219T264 1077Q264 1005 302 957T420 870T627 791Q799 736 897 681T1037 554T1079 381Q1079 269 1029 178T873 34T601 -20Z" />
<glyph unicode="T" horiz-adv-x="1279" d="M570 0Q570 120 570 231T570 473V930Q570 1064 570 1175T570 1407L627 1299H463Q340 1299 246 1299T65 1299V1426H1214V1299Q1129 1299 1035 1299T816 1299H652L710 1407Q710 1287 710 1176T710 930V473Q710 342 710
231T710 0H570Z" />
<glyph unicode="U" horiz-adv-x="1462" d="M732 -21Q537 -21 415 47T234 239T176 525Q176 568 176 635T176 783T176 950Q176 1083 176 1194T176 1426H317Q317 1306 317 1195T317 950V543Q317 406 357 308T489 158T731 105Q884 105 974 157T1104 308T1144 545V950Q1144
1083 1144 1194T1144 1426H1284Q1284 1306 1284 1195T1284 950Q1284 865 1284 784T1284 635T1284 525Q1284 362 1226 239T1046 48T732 -21Z" />
<glyph unicode="V" horiz-adv-x="1360" d="M586 0Q547 107 502 228T418 452L252 900Q224 976 191 1065T123 1247T57 1426H212Q269 1268 334 1089T457 751L675 148H691L909 755Q967 915 1029 1088T1151 1426H1302Q1270 1341 1237 1249T1171 1068T1109 901L944 450Q906
347 863 228T779 0H586Z" />
<glyph unicode="W" horiz-adv-x="2026" d="M477 0Q446 106 411 227T344 451L213 897Q179 1016 137 1158T58 1426H212Q257 1267 307 1092T401 756L568 165H584L746 764Q773 866 804 980T866 1208T925 1426H1096Q1140 1267 1187 1095T1280 761L1444 165H1460L1629
765Q1673 920 1722 1095T1815 1426H1969Q1932 1299 1891 1160T1814 900L1681 451Q1649 344 1614 224T1548 0H1361Q1318 154 1270 325T1179 647L1015 1232H1000L838 647Q796 497 748 324T658 0H477Z" />
<glyph unicode="X" horiz-adv-x="1340" d="M78 0Q140 96 204 195T339 404L565 753V706L367 998Q299 1099 229 1201T77 1426H242Q310 1326 373 1231T495 1049L644 827H660L806 1051Q863 1138 925 1234T1050 1426H1211Q1138 1314 1071 1212T948 1022L737 700V749L955
438Q1036 323 1110 218T1263 0H1094Q1026 98 965 186T846 356L660 624H644L469 355Q414 269 359 184T239 0H78Z" />
<glyph unicode="Y" horiz-adv-x="1288" d="M579 572L263 1090Q214 1172 167 1249T59 1426H221Q280 1326 322 1255T403 1120T487 978L638 726H654L800 970Q848 1051 888 1117T971 1256T1074 1426H1233Q1180 1340 1129 1256T1029 1091L712 572H579ZM575 0Q575 120
575 231T575 473V689H716V473Q716 342 716 231T716 0H575Z" />
<glyph unicode="Z" horiz-adv-x="1334" d="M101 0V85Q159 162 231 256T378 447T513 624L1072 1358L1116 1303H695Q565 1303 419 1303T116 1303V1426H1217V1321Q1121 1195 1028 1074T842 830L248 55L221 123H605Q697 123 809 123T1031 123T1225 123V0H101Z" />
<glyph unicode="[" horiz-adv-x="726" d="M202 -230Q202 -110 202 0T202 242V1052Q202 1185 202 1296T202 1528H697V1417Q631 1417 556 1417T379 1417H265L324 1509Q324 1389 324 1278T324 1033V263Q324 132 324 21T324 -210L271 -119H388Q472 -119 549 -119T697
-119V-230H202Z" />
<glyph unicode="\" horiz-adv-x="885" d="M689 0Q640 112 595 216T490 456L275 948Q233 1045 199 1124T132 1276T66 1426H196Q247 1311 294 1203T403 952L620 456Q679 320 724 216T819 0H689Z" />
<glyph unicode="]" horiz-adv-x="726" d="M29 -230V-119Q95 -119 170 -119T347 -119H461L401 -211Q401 -90 401 21T401 265V1035Q401 1167 401 1277T401 1507L455 1417H338Q253 1417 177 1417T29 1417V1528H524Q524 1409 524 1299T524 1055V246Q524 114 524 2T524
-230H29Z" />
<glyph unicode="^" horiz-adv-x="1204" d="M947 768Q863 891 779 1013T610 1257H594Q511 1137 426 1016T258 775H127Q225 924 323 1072T519 1370H686Q784 1221 882 1071T1077 771L947 768Z" />
<glyph unicode="_" horiz-adv-x="789" d="M-20 -219V-109Q72 -109 157 -109T317 -109H471Q546 -109 631 -109T809 -109V-219Q717 -219 632 -219T471 -219H317Q243 -219 158 -219T-20 -219Z" />
<glyph unicode="`" horiz-adv-x="1200" d="M625 1160Q572 1226 520 1291T414 1421T307 1553L457 1557Q527 1459 596 1361T736 1163L625 1160Z" />
<glyph unicode="a" horiz-adv-x="1041" d="M414 -20Q323 -20 256 14T152 112T115 263Q115 343 144 397T220 485T324 539T435 569L759 629Q763 743 731 800T641 877T515 897Q481 897 442 893T360 878T269 852T166 813L158 935Q194 950 238 964T333 989T435 1006T538
1013Q645 1013 722 979T841 869T883 676Q883 629 883 558T883 422V287Q883 221 883 152T883 0H765L760 147H744Q713 105 664 67T551 4T414 -20ZM446 92Q503 92 561 114T669 184T755 303L756 545Q739 536 711 527T627 505T470 473Q407 462 357 438T276 373T246 268Q246
172 303 132T446 92Z" />
<glyph unicode="b" horiz-adv-x="1183" d="M644 -21Q574 -21 515 -3T407 51T318 135H303L294 0H185Q185 111 185 214T185 439V988Q185 1114 185 1233T185 1463L314 1482Q314 1360 314 1240T314 988V878H329Q358 912 404 943T509 994T640 1013Q777 1013 874 946T1022
763T1074 499Q1074 360 1026 242T883 51T644 -21ZM611 98Q727 98 800 155T907 303T942 498Q942 607 906 696T795 839T608 893Q550 893 496 876T395 826T314 742V274Q347 219 390 180T489 120T611 98Z" />
<glyph unicode="c" horiz-adv-x="994" d="M605 -19Q446 -19 335 49T166 234T108 496Q108 643 164 760T328 945T587 1013Q645 1013 701 1003T806 976T895 936L881 814Q826 846 776 863T682 887T601 894Q437 894 339 788T240 499Q240 385 283 294T411 150T625 97Q669
97 713 105T801 129T884 171L899 48Q867 31 823 16T724 -9T605 -19Z" />
<glyph unicode="d" horiz-adv-x="1152" d="M539 -21Q396 -21 300 51T157 241T109 499Q109 646 160 762T308 946T543 1013Q613 1013 673 994T778 944T853 878H869V988Q869 1114 869 1233T869 1463L998 1482Q998 1360 998 1240T998 988V439Q998 317 998 214T998
0H884L878 137H864Q823 86 774 51T667 -2T539 -21ZM572 98Q639 98 694 119T792 180T869 274V742Q835 792 789 825T688 876T575 893Q461 893 388 840T278 697T241 498Q241 394 275 303T383 155T572 98Z" />
<glyph unicode="e" horiz-adv-x="1055" d="M620 -20Q446 -20 333 47T164 233T108 502Q108 651 163 766T320 947T561 1013Q683 1013 772 964T910 820T958 591Q958 555 957 526T950 467L836 533Q838 549 838 564T839 593Q839 749 763 826T563 904Q461 904 389 854T278
716T239 515V498Q239 374 281 284T410 145T630 96Q679 96 731 104T834 128T932 170L939 49Q901 28 851 13T742 -11T620 -20ZM165 467V564L868 568L950 541V467H165Z" />
<glyph unicode="f" horiz-adv-x="783" d="M246 0Q246 111 246 214T246 439V539Q246 601 246 667T246 806T246 959T246 1129Q246 1231 273 1300T349 1411T461 1471T598 1490Q631 1490 663 1487T722 1478T769 1465L756 1349Q725 1361 689 1367T612 1373Q485 1373
428 1312T371 1127Q371 1093 371 1051T371 991L375 956V439Q375 317 375 214T375 0H246ZM52 885V991H729V885Q627 885 529 885T333 885H283H52Z" />
<glyph unicode="g" horiz-adv-x="1080" d="M490 -406Q380 -406 307 -386T191 -331T130 -254T112 -170Q112 -102 145 -57T224 16T304 53V66Q286 71 262 87T218 132T199 208Q199 245 213 274T256 326T327 364V377Q305 384 269 405T195 465T131 559T104 691Q104 788
152 860T285 973T482 1013Q527 1013 561 1008T631 997T719 992H1037V891Q937 891 841 891T647 891L685 954Q779 911 820 840T862 682Q862 584 823 518T711 411T539 346Q427 320 373 297T319 227Q319 194 341 176T411 151T539 143H583Q724 143 811 121T939 52T980
-75Q980 -157 937 -219T820 -322T661 -385T490 -406ZM498 -295Q616 -295 695 -262T815 -182T856 -93Q856 -50 832 -23T744 18T559 31H520Q449 30 384 8T276 -53T234 -146Q234 -175 247 -202T290 -250T372 -283T498 -295ZM469 438Q510 447 557 460T645 499T713 566T739
675Q739 755 698 804T597 876T484 899Q415 899 357 876T263 805T227 683Q227 608 262 557T353 477T469 438Z" />
<glyph unicode="h" horiz-adv-x="1143" d="M185 0Q185 111 185 214T185 439V988Q185 1114 185 1232T185 1463L314 1482Q314 1362 314 1241T314 988V818H330Q360 861 409 906T525 982T681 1013Q842 1013 913 922T985 658Q985 593 985 545T985 439Q985 322 985 217T985
0H856Q856 111 856 216T856 434V630Q856 758 810 823T643 889Q569 889 509 860T401 781T314 671V434Q314 316 314 214T314 0H185Z" />
<glyph unicode="i" horiz-adv-x="502" d="M187 0Q187 111 187 214T187 439V539Q187 625 187 700T187 846T187 991L315 995Q315 921 315 850T315 703T315 539V439Q315 317 315 214T315 0H187ZM247 1240Q201 1240 172 1267T142 1350Q142 1405 171 1432T249 1460Q297
1460 326 1432T355 1350Q355 1294 326 1267T247 1240Z" />
<glyph unicode="j" horiz-adv-x="497" d="M18 -389Q77 -326 114 -263T169 -124T187 57V439V539Q187 625 187 700T187 846T187 991L315 995Q315 921 315 850T315 703T315 539Q315 419 315 331T315 172T315 37Q315 -39 305 -101T274 -216T226 -309T164 -384L18 -389ZM247
1240Q201 1240 172 1267T142 1350Q142 1405 171 1432T249 1460Q297 1460 326 1432T355 1350Q355 1294 326 1267T247 1240Z" />
<glyph unicode="k" horiz-adv-x="1067" d="M848 0Q775 70 701 139T552 278L365 454H296V551H376L532 705Q605 777 677 848T821 991H986Q896 904 807 818T630 645L455 475L451 540L653 346Q745 260 838 173T1023 0H848ZM185 0Q185 111 185 214T185 439V988Q185
1114 185 1232T185 1463L314 1482Q314 1362 314 1241T314 988V422Q314 307 314 208T314 0H185Z" />
<glyph unicode="l" horiz-adv-x="499" d="M185 0Q185 111 185 214T185 439V988Q185 1114 185 1233T185 1463L314 1482Q314 1360 314 1240T314 988V439Q314 317 314 214T314 0H185Z" />
<glyph unicode="m" horiz-adv-x="1744" d="M185 0Q185 111 185 214T185 439V539Q185 648 185 763T185 991L300 999L304 814H320Q350 858 398 903T512 981T663 1013Q788 1013 854 952T939 776L946 770Q950 744 952 717T954 658Q954 593 954 545T954 439Q954 322
954 217T954 0H825Q825 111 825 216T825 434V630Q825 758 782 823T624 889Q555 889 499 859T397 779T314 671V434Q314 316 314 214T314 0H185ZM1457 0Q1457 111 1457 216T1457 434V630Q1457 758 1414 823T1256 889Q1187 889 1131 860T1028 781T945 671L927 809H943Q977
855 1026 902T1142 981T1296 1013Q1454 1013 1520 919T1586 658Q1586 593 1586 545T1586 439Q1586 322 1586 217T1586 0H1457Z" />
<glyph unicode="n" horiz-adv-x="1143" d="M185 0Q185 111 185 214T185 439V539Q185 648 185 763T185 991L300 999L304 813H320Q351 857 401 903T521 981T681 1013Q842 1013 913 922T985 658Q985 593 985 545T985 439Q985 322 985 217T985 0H856Q856 111 856 216T856
434V630Q856 758 810 823T643 889Q569 889 509 860T401 781T314 671V434Q314 316 314 214T314 0H185Z" />
<glyph unicode="o" horiz-adv-x="1194" d="M601 -21Q482 -21 391 21T236 137T141 304T108 502Q108 650 168 765T339 947T599 1013Q714 1013 804 975T957 867T1053 704T1086 502Q1086 355 1027 237T859 49T601 -21ZM600 95Q719 95 797 153T915 304T954 502Q954
620 911 709T789 847T600 897Q483 897 403 845T281 702T240 502Q240 397 280 305T400 154T600 95Z" />
<glyph unicode="p" horiz-adv-x="1183" d="M185 -389Q185 -278 185 -173T185 55V539Q185 648 185 763T185 991L304 999L307 872H322Q351 909 398 941T507 993T640 1013Q777 1013 874 946T1022 763T1074 499Q1074 360 1026 242T883 51T644 -21Q576 -21 519 -4T414
48T327 129H314V50Q314 -68 314 -170T314 -384L185 -389ZM611 98Q727 98 800 155T907 303T942 498Q942 607 906 696T795 839T608 893Q550 893 496 876T395 826T314 742V274Q347 219 390 180T489 120T611 98Z" />
<glyph unicode="q" horiz-adv-x="1166" d="M869 -389Q869 -278 869 -173T869 50V131H855Q816 83 769 49T664 -3T539 -21Q396 -21 300 51T157 241T109 499Q109 646 160 762T308 946T543 1013Q615 1013 676 994T784 942T861 872H876L879 991L998 999Q998 883 998
773T998 539V55Q998 -67 998 -170T998 -384L869 -389ZM572 98Q639 98 694 119T792 180T869 274V742Q835 792 789 825T688 876T575 893Q461 893 388 840T278 697T241 498Q241 394 275 303T383 155T572 98Z" />
<glyph unicode="r" horiz-adv-x="792" d="M185 0Q185 111 185 214T185 439V539Q185 648 185 763T185 991L300 999L304 791H318Q359 885 414 933T526 997T630 1013Q659 1013 686 1009T739 996L728 864Q697 872 671 876T610 881Q582 881 543 872T463 834T383 747T314
591V434Q314 316 314 214T314 0H185Z" />
<glyph unicode="s" horiz-adv-x="904" d="M454 -20Q394 -20 333 -11T217 16T121 56L133 180Q179 154 231 135T338 106T452 95Q512 95 562 110T643 163T674 273Q674 320 649 350T564 405T403 459Q327 481 265 512T166 595T129 734Q129 861 214 937T445 1013Q503
1013 558 1003T661 975T744 937L732 812Q683 843 634 862T539 889T456 897Q414 897 369 885T293 838T261 737Q261 691 282 660T353 605T489 556Q585 527 656 496T766 414T805 274Q805 192 769 125T655 19T454 -20Z" />
<glyph unicode="t" horiz-adv-x="813" d="M547 -21Q451 -21 385 14T285 119T251 295Q251 388 251 478T251 653T251 812T251 949Q251 1048 251 1134T251 1312L379 1343Q379 1270 379 1209T379 1087T379 949V320Q379 207 427 151T575 95Q614 95 659 108T738 149L752
31Q732 16 701 5T630 -14T547 -21ZM52 885V991H740V885Q639 885 535 885T333 885H283H52Z" />
<glyph unicode="u" horiz-adv-x="1111" d="M463 -21Q302 -21 231 71T159 335Q159 400 159 448T159 543Q159 629 159 703T159 847T159 991L287 996Q287 886 287 779T287 553V361Q287 233 333 168T501 102Q570 102 628 131T735 210T821 320V553Q821 672 821 776T821
991H950Q950 880 950 775T950 543V439Q950 317 950 214T950 0H835L832 180H816Q785 136 735 90T616 11T463 -21Z" />
<glyph unicode="v" horiz-adv-x="1009" d="M429 0Q394 93 359 188T288 374L222 550Q181 659 139 770T55 991L194 996Q241 865 286 736T380 475L498 143H514L633 476Q680 609 726 736T817 991H954Q913 881 871 770T787 548L721 370Q686 276 652 185T582 0H429Z" />
<glyph unicode="w" horiz-adv-x="1585" d="M384 0Q353 93 322 187T259 377L200 553Q164 663 128 771T55 991L191 996Q231 870 275 730T359 461L460 140H473L572 468Q611 599 650 728T729 991H858Q897 865 937 733T1017 472L1119 140H1132L1235 476Q1274 603 1316
739T1393 991H1530Q1494 881 1459 772T1387 553L1330 379Q1299 283 1268 188T1207 0H1049Q1011 122 971 252T893 501L797 807H782L687 498Q651 381 612 252T534 0H384Z" />
<glyph unicode="x" horiz-adv-x="1045" d="M63 0Q109 67 143 116T208 209T275 303L430 525L431 484L280 695Q244 746 213 789T147 881T69 991L216 996Q267 924 306 867T391 745L505 580H517L632 746Q676 810 715 866T801 991H951Q905 926 872 880T810 794T744
703L591 490L585 529L756 302Q810 231 861 164T984 0H826Q777 67 738 121T649 243L516 425H503L383 251Q336 182 297 126T210 0H63Z" />
<glyph unicode="y" horiz-adv-x="1018" d="M279 -389Q318 -292 358 -194T438 1V-37Q400 66 361 170T285 374L218 554Q179 661 137 773T55 991L194 996Q240 862 285 734T376 472L492 140H507L633 474Q683 604 731 732T828 991H963Q931 911 902 837T837 672T751
458L640 179Q565 -11 513 -143T416 -384L279 -389Z" />
<glyph unicode="z" horiz-adv-x="983" d="M81 0V70Q168 185 252 295T410 502L742 937L762 884H536Q480 884 404 884T243 884T83 884V991H876V910Q837 858 784 789T674 646T566 505L235 72L219 107H469Q526 107 602 107T759 107T909 107V0H81Z" />
<glyph unicode="{" horiz-adv-x="786" d="M591 -230Q494 -230 425 -199T318 -106T280 42Q280 77 280 112T280 182T280 252T280 322T280 392Q280 467 252 512T179 577T86 597H24V699H86Q135 699 179 719T251 784T280 904Q280 940 280 974T280 1044T280 1115T280
1186T280 1256Q280 1387 363 1457T591 1528H757V1417Q710 1417 671 1417T605 1417Q505 1417 454 1372T402 1241V904Q402 827 383 780T328 705T246 657V641Q293 620 328 592T382 517T402 392V57Q402 -29 453 -74T605 -119Q631 -119 669 -119T759 -119V-230H591Z"
/>
<glyph unicode="|" horiz-adv-x="519" d="M201 -312Q201 -223 201 -140T201 24T201 185T201 346V910Q201 991 201 1071T201 1231T201 1396T201 1568H318Q318 1480 318 1396T318 1232T318 1071T318 910V346Q318 265 318 185T318 25T318 -139T318 -312H201Z" />
<glyph unicode="}" horiz-adv-x="786" d="M29 -230V-119Q76 -119 115 -119T182 -119Q282 -119 333 -74T384 57V393Q384 471 403 518T458 593T540 641V657Q493 677 458 705T404 781T384 906V1241Q384 1327 333 1372T182 1417Q156 1417 117 1417T27 1417V1528H195Q292
1528 361 1497T469 1404T507 1256Q507 1221 507 1186T507 1116T507 1046T507 976T507 906Q507 831 535 786T607 721T700 701H763V599H700Q651 599 607 579T535 514T507 394Q507 358 507 323T507 253T507 183T507 112T507 42Q507 -89 424 -159T195 -230H29Z" />
<glyph unicode="~" horiz-adv-x="1131" d="M790 450Q723 450 666 476T557 536T458 597T360 623Q302 623 263 588T222 479H129Q129 604 191 672T346 741Q412 741 469 715T577 655T676 594T774 568Q832 568 870 603T909 712H1001Q1001 586 941 518T790 450Z" />
<glyph unicode="&#xa0;" horiz-adv-x="383" />
<glyph unicode="&#xa1;" horiz-adv-x="457" d="M144 -395Q154 -152 162 93T173 587L280 590Q282 341 291 97T309 -389L144 -395ZM228 864Q193 864 166 878T125 919T111 980Q111 1034 143 1065T229 1096Q265 1096 291 1082T332 1042T346 980Q346 928 315 896T228 864Z" />
<glyph unicode="&#xa2;" horiz-adv-x="994" d="M509 -274Q509 -185 509 -102T509 62T509 223T509 384V590Q509 671 509 751T509 911T509 1076T509 1248H610Q610 1160 610 1076T610 912T610 751T610 590V384Q610 303 610 223T610 62T610 -102T610 -274H509ZM605
-19Q446 -19 335 49T166 234T108 496Q108 643 164 760T328 945T587 1013Q645 1013 701 1003T806 976T895 936L881 814Q826 846 776 863T682 887T601 894Q437 894 339 788T240 499Q240 385 283 294T411 150T625 97Q669 97 713 105T801 129T884 171L899 48Q867 31
823 16T724 -9T605 -19Z" />
<glyph unicode="&#xa3;" horiz-adv-x="1174" d="M136 0V82Q200 139 233 200T279 325T292 452Q292 568 292 682T292 911Q292 1156 410 1276T739 1396Q797 1396 853 1386T959 1358T1047 1319L1032 1195Q976 1226 925 1243T830 1267T747 1274Q587 1274 507 1184T427
902V478Q427 404 413 337T359 206T245 79L231 121H520Q650 121 749 121T934 121T1106 121V0H136ZM124 707V807Q215 807 301 807T461 807H526Q601 807 686 807T863 807V707Q772 707 687 707T526 707H461Q387 707 301 707T124 707Z" />
<glyph unicode="&#xa4;" horiz-adv-x="1230" d="M611 241Q525 241 452 268T325 348T241 474T211 641Q211 759 263 849T407 990T615 1041Q702 1041 775 1012T902 930T986 803T1016 641Q1016 516 963 427T819 289T611 241ZM181 124L97 208Q163 273 223 333T335 446L419
362Q367 310 307 250T181 124ZM612 357Q731 357 812 426T894 640Q894 731 857 794T756 891T615 925Q536 925 472 892T371 795T333 640Q333 544 370 481T470 388T612 357ZM336 838Q284 891 224 951T98 1076L180 1159Q246 1094 306 1034T419 920L336 838ZM1050 125Q985
190 925 250T811 363L894 445Q947 393 1007 333T1132 207L1050 125ZM895 837L811 921Q864 974 924 1034T1049 1159L1133 1075Q1069 1011 1008 951T895 837Z" />
<glyph unicode="&#xa5;" horiz-adv-x="1233" d="M553 552L253 1048Q225 1095 200 1138T141 1235T59 1370H214Q271 1275 311 1207T387 1078T467 942L609 700H625L769 944Q812 1017 848 1078T926 1208T1022 1370H1174Q1128 1292 1078 1209T980 1048L681 552H553ZM550
0Q550 115 550 221T550 453V661H685V453Q685 328 685 222T685 0H550ZM165 294V387Q256 387 342 387T502 387H734Q809 387 894 387T1071 387V294Q980 294 895 294T734 294H502Q428 294 342 294T165 294ZM165 572V664Q256 664 342 664T502 664H734Q809 664 894 664T1071
664V572Q980 572 895 572T734 572H502Q428 572 342 572T165 572Z" />
<glyph unicode="&#xa6;" horiz-adv-x="519" d="M201 728V910Q201 991 201 1071T201 1231T201 1396T201 1568H318Q318 1480 318 1396T318 1232T318 1071T318 910V728H201ZM201 -312Q201 -223 201 -140T201 24T201 185T201 346V528H318V346Q318 265 318 185T318
25T318 -139T318 -312H201Z" />
<glyph unicode="&#xa7;" horiz-adv-x="1074" d="M490 -249Q420 -249 347 -237T207 -203T92 -154L105 -30Q160 -62 222 -85T351 -121T483 -134Q560 -134 624 -114T726 -44T765 96Q765 158 733 197T628 266T432 335Q339 364 265 403T147 502T103 657Q103 727 129
786T205 889T326 957L416 873Q372 865 331 841T263 773T236 663Q236 600 265 559T356 487T516 427Q633 392 718 354T851 255T898 90Q898 -2 856 -79T723 -202T490 -249ZM787 258L698 335Q771 356 816 411T861 561Q861 625 829 666T724 738T528 807Q439 833 364
871T243 972T198 1131Q198 1274 297 1363T568 1452Q636 1452 700 1440T821 1406T921 1360L908 1234Q847 1274 790 1296T680 1328T585 1337Q548 1337 505 1329T422 1299T357 1235T332 1129Q332 1069 361 1029T452 959T612 899Q729 864 814 825T947 726T994 567Q994
467 944 386T787 258Z" />
<glyph unicode="&#xa8;" horiz-adv-x="1200" d="M804 1224Q762 1224 736 1250T709 1328Q709 1380 736 1406T806 1433Q850 1433 875 1406T901 1328Q901 1277 875 1251T804 1224ZM388 1224Q346 1224 320 1250T293 1328Q293 1380 320 1406T390 1433Q434 1433 460
1406T486 1328Q486 1277 460 1251T388 1224Z" />
<glyph unicode="&#xa9;" horiz-adv-x="1643" d="M828 -21Q649 -21 515 35T290 190T153 416T107 688Q107 887 192 1047T437 1302T823 1396Q1052 1396 1211 1301T1453 1046T1536 688Q1536 485 1451 325T1207 72T828 -21ZM845 312Q728 312 647 362T524 497T481 689Q481
796 522 881T642 1016T832 1066Q874 1066 915 1059T992 1039T1057 1010L1047 908Q986 945 934 956T841 968Q731 968 661 897T590 691Q590 563 659 486T859 408Q909 408 956 421T1048 463L1060 361Q1036 348 1004 337T932 319T845 312ZM828 72Q1014 72 1151 148T1364
362T1440 688Q1440 875 1365 1013T1152 1227T823 1303Q635 1303 496 1227T280 1012T203 688Q203 501 278 363T493 148T828 72Z" />
<glyph unicode="&#xaa;" horiz-adv-x="786" d="M307 667Q200 667 142 725T83 874Q83 937 106 980T165 1052T243 1095T322 1118L571 1169Q574 1247 550 1287T484 1341T387 1356Q354 1356 314 1350T227 1330T124 1291L116 1394Q145 1405 179 1415T252 1434T329 1447T408
1452Q527 1452 597 1392T668 1194Q668 1163 668 1105T668 1002V907Q668 858 668 802T668 682H576L572 802H560Q536 765 497 734T409 685T307 667ZM340 760Q381 760 424 775T504 822T568 908L569 1104Q556 1097 536 1090T475 1072T364 1047Q319 1039 279 1022T212
974T186 892Q186 821 229 791T340 760Z" />
<glyph unicode="&#xab;" horiz-adv-x="1094" d="M883 -4Q788 123 693 248T502 501Q598 627 693 753T883 1006L1017 998Q924 875 832 753T647 508V492Q740 370 832 248T1017 3L883 -4ZM444 -4Q349 123 254 248T63 501Q159 627 254 753T444 1006L578 998Q485 875
393 753T208 508V492Q301 370 393 248T578 3L444 -4Z" />
<glyph unicode="&#xac;" horiz-adv-x="1131" d="M882 325Q882 417 882 502T882 663V821L974 739Q891 739 812 739T664 739H466Q392 739 307 739T129 739V856Q221 856 306 856T466 856H664Q739 856 824 856T1001 856V663Q1001 588 1001 503T1001 325H882Z" />
<glyph unicode="&#xad;" horiz-adv-x="844" d="M129 535V652Q209 652 283 652T422 652Q487 652 561 652T714 652V535Q635 535 561 535T422 535Q358 535 284 535T129 535Z" />
<glyph unicode="&#xae;" horiz-adv-x="1133" d="M571 517Q405 517 295 584T130 762T75 1004Q75 1140 132 1250T300 1425T567 1490Q726 1490 835 1425T1002 1249T1059 1004Q1059 864 1001 754T833 581T571 517ZM374 731Q374 779 374 823T374 919V1111Q374 1164
374 1208T374 1301L452 1289Q452 1242 452 1199T452 1103V919Q452 867 452 823T452 731H374ZM571 588Q700 588 793 639T935 785T984 1004Q984 1129 936 1222T794 1367T568 1420Q435 1420 341 1368T198 1222T148 1004Q148 911 175 835T257 703T390 618T571 588ZM723
731Q694 770 669 803T618 869L520 998L568 967H437V1029H542Q607 1029 647 1052T687 1139Q687 1184 666 1204T617 1228T566 1233H427L374 1301Q408 1301 457 1301T569 1301Q659 1301 713 1265T767 1143Q767 1073 723 1024T573 974L603 1008L690 896Q724 854 758
809T818 731H723Z" />
<glyph unicode="&#xaf;" horiz-adv-x="1200" d="M294 1269V1372Q363 1372 440 1372T600 1372Q684 1372 760 1372T906 1372V1269Q837 1269 761 1269T600 1269Q517 1269 440 1269T294 1269Z" />
<glyph unicode="&#xb0;" horiz-adv-x="940" d="M470 639Q356 639 267 685T127 816T76 1015Q76 1123 127 1209T267 1345T472 1396Q586 1396 674 1346T812 1209T863 1015Q863 901 813 817T674 686T470 639ZM470 743Q599 743 673 815T748 1014Q748 1095 714 1157T619
1255T472 1291Q343 1291 268 1214T192 1014Q192 930 226 870T322 776T470 743Z" />
<glyph unicode="&#xb1;" horiz-adv-x="1131" d="M129 0V117Q221 117 306 117T466 117H664Q739 117 824 117T1001 117V0Q910 0 825 0T664 0H466Q392 0 307 0T129 0ZM129 714V831Q221 831 306 831T466 831H664Q739 831 824 831T1001 831V714Q910 714 825 714T664
714H466Q392 714 307 714T129 714ZM506 307Q506 398 506 484T506 644V900Q506 975 506 1060T506 1238H625Q625 1146 625 1061T625 900V644Q625 570 625 484T625 307H506Z" />
<glyph unicode="&#xb2;" horiz-adv-x="795" d="M71 603V681Q114 717 158 753T246 826Q349 911 422 984T534 1125T573 1263Q573 1351 524 1395T367 1440Q323 1440 275 1430T177 1399T80 1348L67 1459Q98 1476 135 1490T214 1516T299 1534T386 1541Q482 1541 550
1509T653 1417T688 1277Q688 1201 652 1126T543 972T362 806L203 678L183 703H339Q431 703 524 703T707 703V603H71Z" />
<glyph unicode="&#xb3;" horiz-adv-x="821" d="M397 588Q353 588 309 593T222 609T141 633T71 663L83 768Q121 747 160 732T238 707T313 691T386 686Q515 686 569 734T623 858Q623 947 547 994T333 1041Q312 1041 291 1041T247 1041V1124Q268 1124 288 1124T329
1124Q465 1124 527 1173T590 1297Q590 1371 536 1406T390 1442Q344 1442 296 1431T200 1399T104 1348L93 1456Q124 1474 160 1489T237 1515T320 1534T405 1541Q494 1541 561 1514T667 1435T705 1315Q705 1229 650 1172T522 1099V1088Q572 1079 622 1051T705 972T739
849Q739 738 654 663T397 588Z" />
<glyph unicode="&#xb4;" horiz-adv-x="1200" d="M464 1160Q534 1259 604 1358T742 1553L893 1557Q839 1490 786 1424T680 1293T575 1163L464 1160Z" />
<glyph unicode="&#xb5;" horiz-adv-x="1145" d="M185 -389Q185 -278 185 -173T185 55V543Q185 629 185 703T185 847T185 991L314 996Q314 922 314 851T314 706T314 553V361Q314 233 360 168T527 102Q597 102 655 131T761 210T848 320V553Q848 672 848 776T848
991H977Q977 917 977 847T977 702T977 543V300Q977 234 977 160T977 0H863Q862 45 861 91T858 181H842Q813 137 765 91T651 12T503 -21Q419 -21 363 7T272 95H314V50Q314 -68 314 -170T314 -384L185 -389Z" />
<glyph unicode="&#xb6;" horiz-adv-x="1077" d="M446 608Q326 608 243 666T115 818T71 1023Q71 1141 118 1232T249 1374T446 1426H486V608H446ZM449 -349Q449 -172 449 -13T449 309V768Q449 930 449 1089T449 1426H544Q544 1249 544 1090T544 768V309Q544 147
544 -12T544 -349H449ZM730 -349Q730 -172 730 -13T730 309V768Q730 930 730 1089T730 1426H826Q826 1249 826 1090T826 768V309Q826 147 826 -12T826 -349H730ZM485 1334V1426H683Q758 1426 843 1426T1021 1426V1334Q929 1334 844 1334T683 1334H485Z" />
<glyph unicode="&#xb7;" horiz-adv-x="457" d="M228 529Q193 529 166 544T125 585T111 646Q111 700 143 730T229 761Q265 761 291 747T332 708T346 646Q346 594 315 562T228 529Z" />
<glyph unicode="&#xb8;" horiz-adv-x="1200" d="M551 -426Q531 -426 509 -424T467 -419T432 -411V-321Q446 -326 475 -331T538 -336Q612 -336 640 -312T668 -251Q668 -231 654 -212T600 -177T487 -155L566 33H646V0L594 -119Q667 -129 707 -152T763 -205T779 -266Q779
-310 757 -346T684 -404T551 -426Z" />
<glyph unicode="&#xb9;" horiz-adv-x="625" d="M79 1257L52 1348Q141 1394 226 1438T397 1525L395 1420Q324 1384 246 1344T79 1257ZM342 603Q342 677 342 746T342 898V1184Q342 1257 342 1329T342 1473L397 1525L452 1522Q452 1447 452 1366T452 1202V898Q452
815 452 746T452 603H342Z" />
<glyph unicode="&#xba;" horiz-adv-x="908" d="M457 666Q336 666 252 722T125 868T81 1064Q81 1176 127 1263T257 1401T455 1451Q573 1451 656 1400T783 1262T827 1064Q827 953 782 863T654 719T457 666ZM456 761Q545 761 603 804T690 917T719 1064Q719 1195 649
1275T456 1356Q369 1356 310 1317T220 1212T189 1064Q189 986 218 917T307 805T456 761Z" />
<glyph unicode="&#xbb;" horiz-adv-x="1094" d="M649 -4L515 4Q608 126 700 249T886 494V510Q793 632 701 754T515 999L649 1006Q745 879 840 753T1031 501Q935 374 840 249T649 -4ZM210 -4L76 4Q169 126 261 249T447 494V510Q354 632 262 754T76 999L210 1006Q306
879 401 753T592 501Q496 374 401 249T210 -4Z" />
<glyph unicode="&#xbc;" horiz-adv-x="1854" d="M79 1161L52 1252Q141 1298 226 1342T397 1429L395 1324Q324 1288 246 1248T79 1161ZM342 507Q342 581 342 650T342 802V1088Q342 1161 342 1233T342 1377L397 1429L452 1426Q452 1351 452 1270T452 1106V802Q452
719 452 650T452 507H342ZM451 0Q512 110 570 216T702 458L975 954Q1027 1049 1070 1127T1153 1277T1235 1426H1366Q1324 1349 1285 1277T1202 1127T1107 954L834 458Q759 322 701 216T582 0H451ZM1517 0Q1517 64 1517 119T1517 253L1525 274V578Q1525 649 1525
721T1525 864L1605 902Q1565 849 1527 797T1448 690L1277 462Q1241 413 1208 369T1141 279L1137 303H1546L1565 310Q1620 310 1690 310T1811 310V210Q1761 210 1691 210T1565 210H1046V287Q1073 323 1110 372T1185 474T1256 569L1379 736Q1414 781 1448 827T1517
919H1627Q1627 835 1627 755T1627 594V253Q1627 175 1627 120T1627 0H1517Z" />
<glyph unicode="&#xbd;" horiz-adv-x="1987" d="M79 1161L52 1252Q141 1298 226 1342T397 1429L395 1324Q324 1288 246 1248T79 1161ZM342 507Q342 581 342 650T342 802V1088Q342 1161 342 1233T342 1377L397 1429L452 1426Q452 1351 452 1270T452 1106V802Q452
719 452 650T452 507H342ZM451 0Q512 110 570 216T702 458L975 954Q1027 1049 1070 1127T1153 1277T1235 1426H1366Q1324 1349 1285 1277T1202 1127T1107 954L834 458Q759 322 701 216T582 0H451ZM1263 0V78Q1306 114 1350 150T1438 223Q1541 308 1614 381T1726
522T1765 660Q1765 748 1716 792T1559 837Q1515 837 1467 827T1369 796T1272 745L1259 856Q1290 873 1327 887T1406 913T1491 931T1578 938Q1674 938 1742 906T1845 814T1880 674Q1880 598 1844 523T1735 369T1554 203L1395 75L1375 100H1531Q1623 100 1716 100T1899
100V0H1263Z" />
<glyph unicode="&#xbe;" horiz-adv-x="1960" d="M397 492Q353 492 309 497T222 513T141 537T71 567L83 672Q121 651 160 636T238 611T313 595T386 590Q515 590 569 638T623 762Q623 851 547 898T333 945Q312 945 291 945T247 945V1028Q268 1028 288 1028T329 1028Q465
1028 527 1077T590 1201Q590 1275 536 1310T390 1346Q344 1346 296 1335T200 1303T104 1252L93 1360Q124 1378 160 1393T237 1419T320 1438T405 1445Q494 1445 561 1418T667 1339T705 1219Q705 1133 650 1076T522 1003V992Q572 983 622 955T705 876T739 753Q739
642 654 567T397 492ZM557 0Q618 110 676 216T808 458L1081 954Q1133 1049 1176 1127T1259 1277T1341 1426H1472Q1430 1349 1391 1277T1308 1127T1213 954L940 458Q865 322 807 216T688 0H557ZM1623 0Q1623 64 1623 119T1623 253L1631 274V578Q1631 649 1631 721T1631
864L1711 902Q1671 849 1633 797T1554 690L1383 462Q1347 413 1314 369T1247 279L1243 303H1652L1671 310Q1726 310 1796 310T1917 310V210Q1867 210 1797 210T1671 210H1152V287Q1179 323 1216 372T1291 474T1362 569L1485 736Q1520 781 1554 827T1623 919H1733Q1733
835 1733 755T1733 594V253Q1733 175 1733 120T1733 0H1623Z" />
<glyph unicode="&#xbf;" horiz-adv-x="783" d="M446 -423Q345 -423 269 -392T151 -299T109 -146Q109 -55 148 12T246 131T364 225Q432 276 484 325T536 437Q536 507 493 534T389 561Q351 561 320 553T267 536L261 618Q278 623 303 628T357 637T416 641Q528 641
592 587T657 442Q657 379 627 331T550 242T449 162Q396 123 348 81T268 -12T236 -128Q236 -215 297 -260T465 -306Q511 -306 558 -298T655 -272T753 -229L762 -350Q736 -360 702 -373T628 -397T542 -416T446 -423ZM456 864Q420 864 394 878T354 919T339 980Q339
1034 371 1065T457 1096Q493 1096 519 1082T560 1042T574 980Q574 928 543 896T456 864Z" />
<glyph unicode="&#xc0;" horiz-adv-x="1365" d="M63 0Q106 116 153 242T243 484L424 973Q473 1104 512 1211T592 1426H780Q820 1316 859 1210T946 972L1126 481Q1169 363 1215 239T1302 0H1156Q1110 128 1062 263T970 520L693 1294H677L398 527Q353 402 304 266T207
0H63ZM306 375L316 489H1062L1070 375H306ZM708 1579Q656 1638 604 1696T498 1815T390 1937L540 1939Q610 1850 679 1761T819 1581L708 1579Z" />
<glyph unicode="&#xc1;" horiz-adv-x="1365" d="M63 0Q106 116 153 242T243 484L424 973Q473 1104 512 1211T592 1426H780Q820 1316 859 1210T946 972L1126 481Q1169 363 1215 239T1302 0H1156Q1110 128 1062 263T970 520L693 1294H677L398 527Q353 402 304 266T207
0H63ZM306 375L316 489H1062L1070 375H306ZM547 1579Q618 1670 687 1759T825 1937L976 1939Q922 1878 869 1818T764 1699T658 1581L547 1579Z" />
<glyph unicode="&#xc2;" horiz-adv-x="1365" d="M63 0Q106 116 153 242T243 484L424 973Q473 1104 512 1211T592 1426H780Q820 1316 859 1210T946 972L1126 481Q1169 363 1215 239T1302 0H1156Q1110 128 1062 263T970 520L693 1294H677L398 527Q353 402 304 266T207
0H63ZM306 375L316 489H1062L1070 375H306ZM922 1577Q856 1654 791 1728T660 1881H701Q634 1804 570 1731T440 1581H329Q398 1669 467 1758T607 1937H754Q823 1847 892 1758T1032 1579L922 1577Z" />
<glyph unicode="&#xc3;" horiz-adv-x="1365" d="M63 0Q106 116 153 242T243 484L424 973Q473 1104 512 1211T592 1426H780Q820 1316 859 1210T946 972L1126 481Q1169 363 1215 239T1302 0H1156Q1110 128 1062 263T970 520L693 1294H677L398 527Q353 402 304 266T207
0H63ZM306 375L316 489H1062L1070 375H306ZM849 1577Q790 1577 748 1603T671 1665T604 1727T533 1754Q473 1754 449 1717T424 1606H337Q337 1729 386 1794T520 1859Q578 1859 620 1833T697 1771T763 1709T834 1682Q894 1682 917 1719T942 1830H1029Q1029 1708 981
1643T849 1577Z" />
<glyph unicode="&#xc4;" horiz-adv-x="1365" d="M63 0Q106 116 153 242T243 484L424 973Q473 1104 512 1211T592 1426H780Q820 1316 859 1210T946 972L1126 481Q1169 363 1215 239T1302 0H1156Q1110 128 1062 263T970 520L693 1294H677L398 527Q353 402 304 266T207
0H63ZM306 375L316 489H1062L1070 375H306ZM889 1643Q847 1643 821 1669T794 1747Q794 1799 821 1825T891 1852Q935 1852 960 1825T986 1747Q986 1695 960 1669T889 1643ZM473 1643Q431 1643 405 1669T378 1747Q378 1799 405 1825T475 1852Q519 1852 545 1825T571
1747Q571 1695 545 1669T473 1643Z" />
<glyph unicode="&#xc5;" horiz-adv-x="1365" d="M63 0Q106 116 153 242T243 484L424 973Q473 1104 512 1211T592 1426H780Q820 1316 859 1210T946 972L1126 481Q1169 363 1215 239T1302 0H1156Q1110 128 1062 263T970 520L693 1294H677L398 527Q353 402 304 266T207
0H63ZM306 375L316 489H1062L1070 375H306ZM681 1567Q617 1567 569 1590T493 1659T465 1768Q465 1858 525 1913T683 1968Q747 1968 796 1943T872 1872T899 1768Q899 1704 872 1659T795 1591T681 1567ZM681 1643Q739 1643 777 1674T815 1768Q815 1825 778 1858T683
1892Q625 1892 587 1859T549 1768Q549 1705 587 1674T681 1643Z" />
<glyph unicode="&#xc6;" horiz-adv-x="1928" d="M30 0Q95 114 166 241T300 483L577 978Q647 1103 707 1211T828 1426H1809V1303Q1741 1303 1667 1303T1507 1303T1314 1303H1037L1078 1407Q1078 1287 1078 1175T1078 931V493Q1078 363 1078 252T1078 21L1039 123H1327Q1416
123 1498 123T1658 123T1810 123V0H940Q940 120 940 231T940 473V950Q940 1083 940 1192T940 1412L1009 1306H905L472 527Q403 402 327 266T179 0H30ZM348 375L358 489H995L1004 375H348ZM1048 664V783H1329Q1470 783 1571 783T1767 783V664Q1717 664 1668 664T1566
664T1456 664T1328 664H1048Z" />
<glyph unicode="&#xc7;" horiz-adv-x="1371" d="M832 -21Q664 -21 530 35T301 190T157 424T107 716Q107 932 196 1098T442 1357T805 1451Q876 1451 943 1441T1069 1413T1179 1375T1265 1335L1251 1197Q1174 1242 1100 1270T955 1311T814 1324Q650 1324 524 1250T325
1039T253 715Q253 589 290 479T401 284T586 153T842 105Q894 105 945 111T1048 131T1148 168T1242 223L1256 86Q1214 59 1164 39T1059 5T947 -14T832 -21ZM752 -426Q732 -426 710 -424T668 -419T633 -411V-321Q647 -326 676 -331T739 -336Q813 -336 841 -312T869
-251Q869 -231 855 -212T801 -177T688 -155L767 33H847V0L795 -119Q868 -129 908 -152T964 -205T980 -266Q980 -310 958 -346T885 -404T752 -426Z" />
<glyph unicode="&#xc8;" horiz-adv-x="1185" d="M197 0Q197 120 197 231T197 473V950Q197 1083 197 1194T197 1426H1066V1303Q964 1303 847 1303T572 1303H259L335 1407Q335 1287 335 1175T335 931V493Q335 363 335 252T335 21L265 123H584Q719 123 838 123T1067
123V0H197ZM305 664V783H587Q727 783 828 783T1024 783V664Q925 664 824 664T585 664H305ZM659 1579Q607 1638 555 1696T449 1815T341 1937L491 1939Q561 1850 630 1761T770 1581L659 1579Z" />
<glyph unicode="&#xc9;" horiz-adv-x="1185" d="M197 0Q197 120 197 231T197 473V950Q197 1083 197 1194T197 1426H1066V1303Q964 1303 847 1303T572 1303H259L335 1407Q335 1287 335 1175T335 931V493Q335 363 335 252T335 21L265 123H584Q719 123 838 123T1067
123V0H197ZM305 664V783H587Q727 783 828 783T1024 783V664Q925 664 824 664T585 664H305ZM498 1579Q569 1670 638 1759T776 1937L927 1939Q873 1878 820 1818T715 1699T609 1581L498 1579Z" />
<glyph unicode="&#xca;" horiz-adv-x="1185" d="M197 0Q197 120 197 231T197 473V950Q197 1083 197 1194T197 1426H1066V1303Q964 1303 847 1303T572 1303H259L335 1407Q335 1287 335 1175T335 931V493Q335 363 335 252T335 21L265 123H584Q719 123 838 123T1067
123V0H197ZM305 664V783H587Q727 783 828 783T1024 783V664Q925 664 824 664T585 664H305ZM873 1577Q807 1654 742 1728T611 1881H652Q585 1804 521 1731T391 1581H280Q349 1669 418 1758T558 1937H705Q774 1847 843 1758T983 1579L873 1577Z" />
<glyph unicode="&#xcb;" horiz-adv-x="1185" d="M197 0Q197 120 197 231T197 473V950Q197 1083 197 1194T197 1426H1066V1303Q964 1303 847 1303T572 1303H259L335 1407Q335 1287 335 1175T335 931V493Q335 363 335 252T335 21L265 123H584Q719 123 838 123T1067
123V0H197ZM305 664V783H587Q727 783 828 783T1024 783V664Q925 664 824 664T585 664H305ZM840 1643Q798 1643 772 1669T745 1747Q745 1799 772 1825T842 1852Q886 1852 911 1825T937 1747Q937 1695 911 1669T840 1643ZM424 1643Q382 1643 356 1669T329 1747Q329
1799 356 1825T426 1852Q470 1852 496 1825T522 1747Q522 1695 496 1669T424 1643Z" />
<glyph unicode="&#xcc;" horiz-adv-x="540" d="M199 0Q199 120 199 231T199 473V950Q199 1083 199 1194T199 1426H341Q341 1306 341 1195T341 950V473Q341 342 341 231T341 0H199ZM293 1579Q241 1638 189 1696T83 1815T-25 1937L125 1939Q195 1850 264 1761T404
1581L293 1579Z" />
<glyph unicode="&#xcd;" horiz-adv-x="540" d="M199 0Q199 120 199 231T199 473V950Q199 1083 199 1194T199 1426H341Q341 1306 341 1195T341 950V473Q341 342 341 231T341 0H199ZM132 1579Q203 1670 272 1759T410 1937L561 1939Q507 1878 454 1818T349 1699T243
1581L132 1579Z" />
<glyph unicode="&#xce;" horiz-adv-x="540" d="M199 0Q199 120 199 231T199 473V950Q199 1083 199 1194T199 1426H341Q341 1306 341 1195T341 950V473Q341 342 341 231T341 0H199ZM507 1577Q441 1654 376 1728T245 1881H286Q219 1804 155 1731T25 1581H-86Q-17
1669 52 1758T192 1937H339Q408 1847 477 1758T617 1579L507 1577Z" />
<glyph unicode="&#xcf;" horiz-adv-x="540" d="M199 0Q199 120 199 231T199 473V950Q199 1083 199 1194T199 1426H341Q341 1306 341 1195T341 950V473Q341 342 341 231T341 0H199ZM474 1643Q432 1643 406 1669T379 1747Q379 1799 406 1825T476 1852Q520 1852 545
1825T571 1747Q571 1695 545 1669T474 1643ZM58 1643Q16 1643 -10 1669T-37 1747Q-37 1799 -10 1825T60 1852Q104 1852 130 1825T156 1747Q156 1695 130 1669T58 1643Z" />
<glyph unicode="&#xd0;" horiz-adv-x="1475" d="M-22 642V749Q70 749 155 749T315 749H408Q483 749 568 749T745 749V642Q653 642 568 642T408 642H315Q241 642 156 642T-22 642ZM197 0Q197 120 197 231T197 473V950Q197 1083 197 1194T197 1426Q288 1426 367
1426T523 1426T679 1426Q845 1426 973 1379T1189 1239T1322 1017T1368 719Q1368 568 1328 438T1201 209T974 56T631 0Q548 0 478 0T341 0T197 0ZM338 120H633Q851 120 980 199T1165 414T1222 722Q1222 855 1189 962T1086 1147T910 1265T656 1306H338Q338 1214 338
1124T338 927V496Q338 391 338 301T338 120Z" />
<glyph unicode="&#xd1;" horiz-adv-x="1510" d="M197 0Q197 120 197 231T197 473V950Q197 1083 197 1194T197 1426H327Q462 1237 587 1060T836 711L1166 248H1178V950Q1178 1083 1178 1194T1178 1426H1313Q1313 1306 1313 1195T1313 950V473Q1313 342 1313 231T1313
0H1186Q1074 158 950 333T675 718L344 1184H332V473Q332 342 332 231T332 0H197ZM922 1577Q863 1577 821 1603T744 1665T677 1727T606 1754Q546 1754 522 1717T497 1606H410Q410 1729 459 1794T593 1859Q651 1859 693 1833T770 1771T836 1709T907 1682Q967 1682
990 1719T1015 1830H1102Q1102 1708 1054 1643T922 1577Z" />
<glyph unicode="&#xd2;" horiz-adv-x="1635" d="M825 -21Q646 -21 512 37T287 198T152 433T107 715Q107 922 191 1089T435 1353T819 1451Q990 1451 1122 1395T1344 1237T1481 1002T1528 715Q1528 505 1444 339T1202 76T825 -21ZM820 105Q967 105 1073 155T1247
291T1349 487T1382 715Q1382 843 1347 954T1241 1148T1065 1279T820 1326Q676 1326 570 1277T393 1141T288 946T253 715Q253 594 287 484T390 289T566 154T820 105ZM842 1579Q790 1638 738 1696T632 1815T524 1937L674 1939Q744 1850 813 1761T953 1581L842 1579Z"
/>
<glyph unicode="&#xd3;" horiz-adv-x="1635" d="M825 -21Q646 -21 512 37T287 198T152 433T107 715Q107 922 191 1089T435 1353T819 1451Q990 1451 1122 1395T1344 1237T1481 1002T1528 715Q1528 505 1444 339T1202 76T825 -21ZM820 105Q967 105 1073 155T1247
291T1349 487T1382 715Q1382 843 1347 954T1241 1148T1065 1279T820 1326Q676 1326 570 1277T393 1141T288 946T253 715Q253 594 287 484T390 289T566 154T820 105ZM681 1579Q752 1670 821 1759T959 1937L1110 1939Q1056 1878 1003 1818T898 1699T792 1581L681
1579Z" />
<glyph unicode="&#xd4;" horiz-adv-x="1635" d="M825 -21Q646 -21 512 37T287 198T152 433T107 715Q107 922 191 1089T435 1353T819 1451Q990 1451 1122 1395T1344 1237T1481 1002T1528 715Q1528 505 1444 339T1202 76T825 -21ZM820 105Q967 105 1073 155T1247
291T1349 487T1382 715Q1382 843 1347 954T1241 1148T1065 1279T820 1326Q676 1326 570 1277T393 1141T288 946T253 715Q253 594 287 484T390 289T566 154T820 105ZM1056 1577Q990 1654 925 1728T794 1881H835Q768 1804 704 1731T574 1581H463Q532 1669 601 1758T741
1937H888Q957 1847 1026 1758T1166 1579L1056 1577Z" />
<glyph unicode="&#xd5;" horiz-adv-x="1635" d="M825 -21Q646 -21 512 37T287 198T152 433T107 715Q107 922 191 1089T435 1353T819 1451Q990 1451 1122 1395T1344 1237T1481 1002T1528 715Q1528 505 1444 339T1202 76T825 -21ZM820 105Q967 105 1073 155T1247
291T1349 487T1382 715Q1382 843 1347 954T1241 1148T1065 1279T820 1326Q676 1326 570 1277T393 1141T288 946T253 715Q253 594 287 484T390 289T566 154T820 105ZM983 1577Q924 1577 882 1603T805 1665T738 1727T667 1754Q607 1754 583 1717T558 1606H471Q471
1729 520 1794T654 1859Q712 1859 754 1833T831 1771T897 1709T968 1682Q1028 1682 1051 1719T1076 1830H1163Q1163 1708 1115 1643T983 1577Z" />
<glyph unicode="&#xd6;" horiz-adv-x="1635" d="M825 -21Q646 -21 512 37T287 198T152 433T107 715Q107 922 191 1089T435 1353T819 1451Q990 1451 1122 1395T1344 1237T1481 1002T1528 715Q1528 505 1444 339T1202 76T825 -21ZM820 105Q967 105 1073 155T1247
291T1349 487T1382 715Q1382 843 1347 954T1241 1148T1065 1279T820 1326Q676 1326 570 1277T393 1141T288 946T253 715Q253 594 287 484T390 289T566 154T820 105ZM1023 1643Q981 1643 955 1669T928 1747Q928 1799 955 1825T1025 1852Q1069 1852 1094 1825T1120
1747Q1120 1695 1094 1669T1023 1643ZM607 1643Q565 1643 539 1669T512 1747Q512 1799 539 1825T609 1852Q653 1852 679 1825T705 1747Q705 1695 679 1669T607 1643Z" />
<glyph unicode="&#xd7;" horiz-adv-x="1124" d="M905 167Q841 232 780 293T666 407L372 700Q320 753 260 813T134 939L218 1023Q284 959 344 898T458 783L750 491Q804 438 865 378T990 251L905 167ZM218 167L134 251Q177 295 218 336T299 416T374 491L666 784Q720
838 780 898T905 1023L990 939Q926 874 866 814T751 700L458 407Q406 355 345 294T218 167Z" />
<glyph unicode="&#xd8;" horiz-adv-x="1635" d="M825 -21Q646 -21 512 37T287 198T152 433T107 715Q107 922 191 1089T435 1353T819 1451Q990 1451 1122 1395T1344 1237T1481 1002T1528 715Q1528 505 1444 339T1202 76T825 -21ZM820 105Q967 105 1073 155T1247
291T1349 487T1382 715Q1382 843 1347 954T1241 1148T1065 1279T820 1326Q676 1326 570 1277T393 1141T288 946T253 715Q253 594 287 484T390 289T566 154T820 105ZM257 -123L180 -59Q284 78 376 198T576 460L970 974Q1080 1118 1175 1242T1371 1498L1451 1438Q1349
1305 1255 1182T1052 916L655 397Q547 256 452 131T257 -123Z" />
<glyph unicode="&#xd9;" horiz-adv-x="1462" d="M732 -21Q537 -21 415 47T234 239T176 525Q176 568 176 635T176 783T176 950Q176 1083 176 1194T176 1426H317Q317 1306 317 1195T317 950V543Q317 406 357 308T489 158T731 105Q884 105 974 157T1104 308T1144
545V950Q1144 1083 1144 1194T1144 1426H1284Q1284 1306 1284 1195T1284 950Q1284 865 1284 784T1284 635T1284 525Q1284 362 1226 239T1046 48T732 -21ZM758 1579Q706 1638 654 1696T548 1815T440 1937L590 1939Q660 1850 729 1761T869 1581L758 1579Z" />
<glyph unicode="&#xda;" horiz-adv-x="1462" d="M732 -21Q537 -21 415 47T234 239T176 525Q176 568 176 635T176 783T176 950Q176 1083 176 1194T176 1426H317Q317 1306 317 1195T317 950V543Q317 406 357 308T489 158T731 105Q884 105 974 157T1104 308T1144
545V950Q1144 1083 1144 1194T1144 1426H1284Q1284 1306 1284 1195T1284 950Q1284 865 1284 784T1284 635T1284 525Q1284 362 1226 239T1046 48T732 -21ZM597 1579Q668 1670 737 1759T875 1937L1026 1939Q972 1878 919 1818T814 1699T708 1581L597 1579Z" />
<glyph unicode="&#xdb;" horiz-adv-x="1462" d="M732 -21Q537 -21 415 47T234 239T176 525Q176 568 176 635T176 783T176 950Q176 1083 176 1194T176 1426H317Q317 1306 317 1195T317 950V543Q317 406 357 308T489 158T731 105Q884 105 974 157T1104 308T1144
545V950Q1144 1083 1144 1194T1144 1426H1284Q1284 1306 1284 1195T1284 950Q1284 865 1284 784T1284 635T1284 525Q1284 362 1226 239T1046 48T732 -21ZM972 1577Q906 1654 841 1728T710 1881H751Q684 1804 620 1731T490 1581H379Q448 1669 517 1758T657 1937H804Q873
1847 942 1758T1082 1579L972 1577Z" />
<glyph unicode="&#xdc;" horiz-adv-x="1462" d="M732 -21Q537 -21 415 47T234 239T176 525Q176 568 176 635T176 783T176 950Q176 1083 176 1194T176 1426H317Q317 1306 317 1195T317 950V543Q317 406 357 308T489 158T731 105Q884 105 974 157T1104 308T1144
545V950Q1144 1083 1144 1194T1144 1426H1284Q1284 1306 1284 1195T1284 950Q1284 865 1284 784T1284 635T1284 525Q1284 362 1226 239T1046 48T732 -21ZM939 1643Q897 1643 871 1669T844 1747Q844 1799 871 1825T941 1852Q985 1852 1010 1825T1036 1747Q1036 1695
1010 1669T939 1643ZM523 1643Q481 1643 455 1669T428 1747Q428 1799 455 1825T525 1852Q569 1852 595 1825T621 1747Q621 1695 595 1669T523 1643Z" />
<glyph unicode="&#xdd;" horiz-adv-x="1288" d="M579 572L263 1090Q214 1172 167 1249T59 1426H221Q280 1326 322 1255T403 1120T487 978L638 726H654L800 970Q848 1051 888 1117T971 1256T1074 1426H1233Q1180 1340 1129 1256T1029 1091L712 572H579ZM575 0Q575
120 575 231T575 473V689H716V473Q716 342 716 231T716 0H575ZM510 1579Q581 1670 650 1759T788 1937L939 1939Q885 1878 832 1818T727 1699T621 1581L510 1579Z" />
<glyph unicode="&#xde;" horiz-adv-x="1242" d="M197 0Q197 120 197 231T197 473V950Q197 1083 197 1194T197 1426H336Q336 1306 336 1195T336 950V473Q336 342 336 231T336 0H197ZM631 323Q580 323 523 323T411 323T317 323V441H608Q747 441 836 474T967 578T1010
764Q1010 860 978 916T896 999T787 1034T674 1042H317V1162Q381 1162 473 1162T683 1162Q843 1162 947 1119T1102 988T1153 765Q1153 637 1106 538T944 381T631 323Z" />
<glyph unicode="&#xdf;" horiz-adv-x="1209" d="M677 -9Q647 -9 616 -6T560 2V107Q578 103 603 101T656 98Q806 98 887 184T968 416Q968 527 919 600T785 708T596 744V850Q673 850 739 882T847 976T888 1126Q888 1239 820 1306T633 1373Q497 1373 424 1288T351
1028V439Q351 317 351 214T351 0H223Q223 111 223 214T223 439V539Q223 662 223 785T223 1031Q223 1254 333 1372T636 1490Q748 1490 833 1448T965 1329T1013 1145Q1013 1053 981 989T902 886T808 825V810Q852 796 902 769T998 695T1071 580T1100 413Q1100 226
988 109T677 -9ZM52 887V991H260V887H52Z" />
<glyph unicode="&#xe0;" horiz-adv-x="1035" d="M414 -20Q323 -20 256 14T152 112T115 263Q115 343 144 397T220 485T324 539T435 569L759 629Q763 743 731 800T641 877T515 897Q481 897 442 893T360 878T269 852T166 813L158 935Q194 950 238 964T333 989T435
1006T538 1013Q645 1013 722 979T841 869T883 676Q883 629 883 558T883 422V287Q883 221 883 152T883 0H765L760 147H744Q713 105 664 67T551 4T414 -20ZM446 92Q503 92 561 114T669 184T755 303L756 545Q739 536 711 527T627 505T470 473Q407 462 357 438T276
373T246 268Q246 172 303 132T446 92ZM810 1160Q757 1226 705 1291T599 1421T492 1553L642 1557Q712 1459 781 1361T921 1163L810 1160Z" />
<glyph unicode="&#xe1;" horiz-adv-x="1035" d="M414 -20Q323 -20 256 14T152 112T115 263Q115 343 144 397T220 485T324 539T435 569L759 629Q763 743 731 800T641 877T515 897Q481 897 442 893T360 878T269 852T166 813L158 935Q194 950 238 964T333 989T435
1006T538 1013Q645 1013 722 979T841 869T883 676Q883 629 883 558T883 422V287Q883 221 883 152T883 0H765L760 147H744Q713 105 664 67T551 4T414 -20ZM446 92Q503 92 561 114T669 184T755 303L756 545Q739 536 711 527T627 505T470 473Q407 462 357 438T276
373T246 268Q246 172 303 132T446 92ZM649 1160Q719 1259 789 1358T927 1553L1078 1557Q1024 1490 971 1424T865 1293T760 1163L649 1160Z" />
<glyph unicode="&#xe2;" horiz-adv-x="1035" d="M414 -20Q323 -20 256 14T152 112T115 263Q115 343 144 397T220 485T324 539T435 569L759 629Q763 743 731 800T641 877T515 897Q481 897 442 893T360 878T269 852T166 813L158 935Q194 950 238 964T333 989T435
1006T538 1013Q645 1013 722 979T841 869T883 676Q883 629 883 558T883 422V287Q883 221 883 152T883 0H765L760 147H744Q713 105 664 67T551 4T414 -20ZM446 92Q503 92 561 114T669 184T755 303L756 545Q739 536 711 527T627 505T470 473Q407 462 357 438T276
373T246 268Q246 172 303 132T446 92ZM1024 1158Q958 1242 894 1324T763 1490H802Q736 1406 672 1326T542 1162H431Q500 1260 570 1358T709 1553H856Q925 1456 994 1358T1134 1161L1024 1158Z" />
<glyph unicode="&#xe3;" horiz-adv-x="1035" d="M414 -20Q323 -20 256 14T152 112T115 263Q115 343 144 397T220 485T324 539T435 569L759 629Q763 743 731 800T641 877T515 897Q481 897 442 893T360 878T269 852T166 813L158 935Q194 950 238 964T333 989T435
1006T538 1013Q645 1013 722 979T841 869T883 676Q883 629 883 558T883 422V287Q883 221 883 152T883 0H765L760 147H744Q713 105 664 67T551 4T414 -20ZM446 92Q503 92 561 114T669 184T755 303L756 545Q739 536 711 527T627 505T470 473Q407 462 357 438T276
373T246 268Q246 172 303 132T446 92ZM951 1158Q892 1158 850 1185T773 1247T706 1309T635 1336Q575 1336 551 1299T526 1187H439Q439 1310 488 1375T622 1440Q680 1440 722 1414T799 1352T865 1290T936 1263Q996 1263 1019 1300T1044 1412H1131Q1131 1289 1083
1224T951 1158Z" />
<glyph unicode="&#xe4;" horiz-adv-x="1035" d="M414 -20Q323 -20 256 14T152 112T115 263Q115 343 144 397T220 485T324 539T435 569L759 629Q763 743 731 800T641 877T515 897Q481 897 442 893T360 878T269 852T166 813L158 935Q194 950 238 964T333 989T435
1006T538 1013Q645 1013 722 979T841 869T883 676Q883 629 883 558T883 422V287Q883 221 883 152T883 0H765L760 147H744Q713 105 664 67T551 4T414 -20ZM446 92Q503 92 561 114T669 184T755 303L756 545Q739 536 711 527T627 505T470 473Q407 462 357 438T276
373T246 268Q246 172 303 132T446 92ZM991 1224Q949 1224 923 1250T896 1328Q896 1380 923 1406T993 1433Q1037 1433 1062 1406T1088 1328Q1088 1277 1062 1251T991 1224ZM575 1224Q533 1224 507 1250T480 1328Q480 1380 507 1406T577 1433Q621 1433 647 1406T673
1328Q673 1277 647 1251T575 1224Z" />
<glyph unicode="&#xe5;" horiz-adv-x="1035" d="M414 -20Q323 -20 256 14T152 112T115 263Q115 343 144 397T220 485T324 539T435 569L759 629Q763 743 731 800T641 877T515 897Q481 897 442 893T360 878T269 852T166 813L158 935Q194 950 238 964T333 989T435
1006T538 1013Q645 1013 722 979T841 869T883 676Q883 629 883 558T883 422V287Q883 221 883 152T883 0H765L760 147H744Q713 105 664 67T551 4T414 -20ZM446 92Q503 92 561 114T669 184T755 303L756 545Q739 536 711 527T627 505T470 473Q407 462 357 438T276
373T246 268Q246 172 303 132T446 92ZM783 1132Q719 1132 671 1155T595 1224T567 1333Q567 1423 627 1478T785 1533Q849 1533 898 1508T974 1437T1001 1333Q1001 1269 974 1224T897 1156T783 1132ZM783 1208Q841 1208 879 1239T917 1333Q917 1390 880 1423T785
1457Q727 1457 689 1424T651 1333Q651 1270 689 1239T783 1208Z" />
<glyph unicode="&#xe6;" horiz-adv-x="1635" d="M1223 -20Q1054 -20 947 47T789 233T738 502Q738 651 788 766T934 947T1166 1013Q1287 1013 1376 964T1513 820T1561 591Q1561 555 1560 526T1553 467L1439 533Q1441 549 1441 564T1442 593Q1442 749 1366 826T1166
904Q1064 904 995 854T890 716T854 515V498Q854 313 944 205T1233 96Q1282 96 1334 104T1437 128T1535 170L1542 49Q1504 28 1454 13T1345 -11T1223 -20ZM421 92Q478 92 536 114T645 184T731 303L732 545Q715 536 687 527T602 505T446 473Q383 462 333 438T252
373T222 268Q222 172 279 132T421 92ZM397 -20Q302 -20 233 14T127 112T90 263Q90 343 119 397T195 485T299 539T411 569L734 629Q739 743 707 800T617 877T490 897Q456 897 417 893T336 878T245 852T141 813L133 935Q169 950 213 964T306 989T406 1006T507 1013Q662
1013 750 934T839 676L811 502L825 260Q778 165 710 103T562 10T397 -20ZM780 467V564L1471 568L1553 547V467H780Z" />
<glyph unicode="&#xe7;" horiz-adv-x="994" d="M605 -19Q446 -19 335 49T166 234T108 496Q108 643 164 760T328 945T587 1013Q645 1013 701 1003T806 976T895 936L881 814Q826 846 776 863T682 887T601 894Q437 894 339 788T240 499Q240 385 283 294T411 150T625
97Q669 97 713 105T801 129T884 171L899 48Q867 31 823 16T724 -9T605 -19ZM783 -426Q763 -426 741 -424T699 -419T664 -411V-321Q678 -326 707 -331T770 -336Q844 -336 872 -312T900 -251Q900 -231 886 -212T832 -177T719 -155L798 33H878V0L826 -119Q899 -129
939 -152T995 -205T1011 -266Q1011 -310 989 -346T916 -404T783 -426Z" />
<glyph unicode="&#xe8;" horiz-adv-x="1055" d="M620 -20Q446 -20 333 47T164 233T108 502Q108 651 163 766T320 947T561 1013Q683 1013 772 964T910 820T958 591Q958 555 957 526T950 467L836 533Q838 549 838 564T839 593Q839 749 763 826T563 904Q461 904 389
854T278 716T239 515V498Q239 374 281 284T410 145T630 96Q679 96 731 104T834 128T932 170L939 49Q901 28 851 13T742 -11T620 -20ZM165 467V564L868 568L950 541V467H165ZM837 1160Q784 1226 732 1291T626 1421T519 1553L669 1557Q739 1459 808 1361T948 1163L837
1160Z" />
<glyph unicode="&#xe9;" horiz-adv-x="1055" d="M620 -20Q446 -20 333 47T164 233T108 502Q108 651 163 766T320 947T561 1013Q683 1013 772 964T910 820T958 591Q958 555 957 526T950 467L836 533Q838 549 838 564T839 593Q839 749 763 826T563 904Q461 904 389
854T278 716T239 515V498Q239 374 281 284T410 145T630 96Q679 96 731 104T834 128T932 170L939 49Q901 28 851 13T742 -11T620 -20ZM165 467V564L868 568L950 541V467H165ZM676 1160Q746 1259 816 1358T954 1553L1105 1557Q1051 1490 998 1424T892 1293T787 1163L676
1160Z" />
<glyph unicode="&#xea;" horiz-adv-x="1055" d="M620 -20Q446 -20 333 47T164 233T108 502Q108 651 163 766T320 947T561 1013Q683 1013 772 964T910 820T958 591Q958 555 957 526T950 467L836 533Q838 549 838 564T839 593Q839 749 763 826T563 904Q461 904 389
854T278 716T239 515V498Q239 374 281 284T410 145T630 96Q679 96 731 104T834 128T932 170L939 49Q901 28 851 13T742 -11T620 -20ZM165 467V564L868 568L950 541V467H165ZM1051 1158Q985 1242 921 1324T790 1490H829Q763 1406 699 1326T569 1162H458Q527 1260
597 1358T736 1553H883Q952 1456 1021 1358T1161 1161L1051 1158Z" />
<glyph unicode="&#xeb;" horiz-adv-x="1055" d="M620 -20Q446 -20 333 47T164 233T108 502Q108 651 163 766T320 947T561 1013Q683 1013 772 964T910 820T958 591Q958 555 957 526T950 467L836 533Q838 549 838 564T839 593Q839 749 763 826T563 904Q461 904 389
854T278 716T239 515V498Q239 374 281 284T410 145T630 96Q679 96 731 104T834 128T932 170L939 49Q901 28 851 13T742 -11T620 -20ZM165 467V564L868 568L950 541V467H165ZM1018 1224Q976 1224 950 1250T923 1328Q923 1380 950 1406T1020 1433Q1064 1433 1089
1406T1115 1328Q1115 1277 1089 1251T1018 1224ZM602 1224Q560 1224 534 1250T507 1328Q507 1380 534 1406T604 1433Q648 1433 674 1406T700 1328Q700 1277 674 1251T602 1224Z" />
<glyph unicode="&#xec;" horiz-adv-x="502" d="M187 0Q187 111 187 214T187 439V539Q187 625 187 700T187 846T187 991L315 995Q315 921 315 850T315 703T315 539V439Q315 317 315 214T315 0H187ZM276 1160Q223 1226 171 1291T65 1421T-42 1553L108 1557Q178 1459
247 1361T387 1163L276 1160Z" />
<glyph unicode="&#xed;" horiz-adv-x="502" d="M187 0Q187 111 187 214T187 439V539Q187 625 187 700T187 846T187 991L315 995Q315 921 315 850T315 703T315 539V439Q315 317 315 214T315 0H187ZM115 1160Q185 1259 255 1358T393 1553L544 1557Q490 1490 437
1424T331 1293T226 1163L115 1160Z" />
<glyph unicode="&#xee;" horiz-adv-x="502" d="M187 0Q187 111 187 214T187 439V539Q187 625 187 700T187 846T187 991L315 995Q315 921 315 850T315 703T315 539V439Q315 317 315 214T315 0H187ZM457 1158Q414 1224 370 1289T283 1420T194 1553H314Q375 1456
436 1359T558 1161L457 1158ZM-61 1162Q1 1261 61 1357T183 1553H303Q258 1486 215 1422T128 1293T41 1162H-61Z" />
<glyph unicode="&#xef;" horiz-adv-x="502" d="M187 0Q187 111 187 214T187 439V539Q187 625 187 700T187 846T187 991L315 995Q315 921 315 850T315 703T315 539V439Q315 317 315 214T315 0H187ZM420 1224Q378 1224 353 1250T327 1328Q327 1380 353 1406T422
1433Q465 1433 489 1406T514 1328Q514 1294 503 1271T470 1236T420 1224ZM79 1224Q38 1224 12 1250T-14 1328Q-14 1380 12 1406T81 1433Q124 1433 149 1406T174 1328Q174 1294 162 1271T129 1236T79 1224Z" />
<glyph unicode="&#xf0;" horiz-adv-x="1180" d="M594 -20Q438 -20 330 51T165 237T108 486Q108 622 163 731T318 904T550 968Q607 968 666 954T785 911T899 832L942 841Q957 799 960 752T951 663Q884 746 817 786T690 839T587 852Q471 852 394 800T278 664T240
483Q240 385 279 297T397 152T594 95Q768 95 853 231T939 612Q939 802 874 959T684 1247Q633 1303 570 1353T434 1450L542 1500Q614 1457 678 1406T798 1294Q925 1159 998 992T1072 604Q1072 412 1019 272T859 56T594 -20ZM352 1112L324 1204Q411 1230 490 1254T637
1299L729 1327Q795 1347 874 1370T1041 1421L1069 1329Q982 1303 903 1279T756 1235L664 1207Q598 1187 518 1163T352 1112Z" />
<glyph unicode="&#xf1;" horiz-adv-x="1143" d="M185 0Q185 111 185 214T185 439V539Q185 648 185 763T185 991L300 999L304 813H320Q351 857 401 903T521 981T681 1013Q842 1013 913 922T985 658Q985 593 985 545T985 439Q985 322 985 217T985 0H856Q856 111
856 216T856 434V630Q856 758 810 823T643 889Q569 889 509 860T401 781T314 671V434Q314 316 314 214T314 0H185ZM1008 1158Q949 1158 907 1185T830 1247T763 1309T692 1336Q632 1336 608 1299T583 1187H496Q496 1310 545 1375T679 1440Q737 1440 779 1414T856
1352T922 1290T993 1263Q1053 1263 1076 1300T1101 1412H1188Q1188 1289 1140 1224T1008 1158Z" />
<glyph unicode="&#xf2;" horiz-adv-x="1194" d="M601 -21Q482 -21 391 21T236 137T141 304T108 502Q108 650 168 765T339 947T599 1013Q714 1013 804 975T957 867T1053 704T1086 502Q1086 355 1027 237T859 49T601 -21ZM600 95Q719 95 797 153T915 304T954 502Q954
620 911 709T789 847T600 897Q483 897 403 845T281 702T240 502Q240 397 280 305T400 154T600 95ZM877 1160Q824 1226 772 1291T666 1421T559 1553L709 1557Q779 1459 848 1361T988 1163L877 1160Z" />
<glyph unicode="&#xf3;" horiz-adv-x="1194" d="M601 -21Q482 -21 391 21T236 137T141 304T108 502Q108 650 168 765T339 947T599 1013Q714 1013 804 975T957 867T1053 704T1086 502Q1086 355 1027 237T859 49T601 -21ZM600 95Q719 95 797 153T915 304T954 502Q954
620 911 709T789 847T600 897Q483 897 403 845T281 702T240 502Q240 397 280 305T400 154T600 95ZM716 1160Q786 1259 856 1358T994 1553L1145 1557Q1091 1490 1038 1424T932 1293T827 1163L716 1160Z" />
<glyph unicode="&#xf4;" horiz-adv-x="1194" d="M601 -21Q482 -21 391 21T236 137T141 304T108 502Q108 650 168 765T339 947T599 1013Q714 1013 804 975T957 867T1053 704T1086 502Q1086 355 1027 237T859 49T601 -21ZM600 95Q719 95 797 153T915 304T954 502Q954
620 911 709T789 847T600 897Q483 897 403 845T281 702T240 502Q240 397 280 305T400 154T600 95ZM1091 1158Q1025 1242 961 1324T830 1490H869Q803 1406 739 1326T609 1162H498Q567 1260 637 1358T776 1553H923Q992 1456 1061 1358T1201 1161L1091 1158Z" />
<glyph unicode="&#xf5;" horiz-adv-x="1194" d="M601 -21Q482 -21 391 21T236 137T141 304T108 502Q108 650 168 765T339 947T599 1013Q714 1013 804 975T957 867T1053 704T1086 502Q1086 355 1027 237T859 49T601 -21ZM600 95Q719 95 797 153T915 304T954 502Q954
620 911 709T789 847T600 897Q483 897 403 845T281 702T240 502Q240 397 280 305T400 154T600 95ZM1018 1158Q959 1158 917 1185T840 1247T773 1309T702 1336Q642 1336 618 1299T593 1187H506Q506 1310 555 1375T689 1440Q747 1440 789 1414T866 1352T932 1290T1003
1263Q1063 1263 1086 1300T1111 1412H1198Q1198 1289 1150 1224T1018 1158Z" />
<glyph unicode="&#xf6;" horiz-adv-x="1194" d="M601 -21Q482 -21 391 21T236 137T141 304T108 502Q108 650 168 765T339 947T599 1013Q714 1013 804 975T957 867T1053 704T1086 502Q1086 355 1027 237T859 49T601 -21ZM600 95Q719 95 797 153T915 304T954 502Q954
620 911 709T789 847T600 897Q483 897 403 845T281 702T240 502Q240 397 280 305T400 154T600 95ZM1058 1224Q1016 1224 990 1250T963 1328Q963 1380 990 1406T1060 1433Q1104 1433 1129 1406T1155 1328Q1155 1277 1129 1251T1058 1224ZM642 1224Q600 1224 574
1250T547 1328Q547 1380 574 1406T644 1433Q688 1433 714 1406T740 1328Q740 1277 714 1251T642 1224Z" />
<glyph unicode="&#xf7;" horiz-adv-x="1131" d="M129 536V654Q221 654 306 654T466 654H664Q739 654 824 654T1001 654V536Q910 536 825 536T664 536H466Q392 536 307 536T129 536ZM563 129Q513 129 483 159T453 239Q453 290 483 319T563 348Q615 348 644 319T674
239Q674 189 645 159T563 129ZM563 839Q513 839 483 869T453 949Q453 1000 483 1029T564 1058Q615 1058 644 1029T674 949Q674 900 645 870T563 839Z" />
<glyph unicode="&#xf8;" horiz-adv-x="1194" d="M601 -20Q482 -20 391 22T236 137T141 304T108 502Q108 650 168 765T339 947T599 1013Q714 1013 804 975T957 866T1053 704T1086 502Q1086 355 1027 237T858 50T601 -20ZM600 95Q719 95 797 153T915 305T954 502Q954
620 911 709T789 847T600 897Q483 897 403 845T281 702T240 502Q240 398 280 305T400 154T600 95ZM192 -123L121 -68Q199 34 267 123T413 313L701 690Q784 799 853 889T994 1074L1068 1021Q994 924 923 831T771 633L482 256Q403 152 335 63T192 -123Z" />
<glyph unicode="&#xf9;" horiz-adv-x="1111" d="M463 -21Q302 -21 231 71T159 335Q159 400 159 448T159 543Q159 629 159 703T159 847T159 991L287 996Q287 886 287 779T287 553V361Q287 233 333 168T501 102Q570 102 628 131T735 210T821 320V553Q821 672 821
776T821 991H950Q950 880 950 775T950 543V439Q950 317 950 214T950 0H835L832 180H816Q785 136 735 90T616 11T463 -21ZM836 1160Q783 1226 731 1291T625 1421T518 1553L668 1557Q738 1459 807 1361T947 1163L836 1160Z" />
<glyph unicode="&#xfa;" horiz-adv-x="1111" d="M463 -21Q302 -21 231 71T159 335Q159 400 159 448T159 543Q159 629 159 703T159 847T159 991L287 996Q287 886 287 779T287 553V361Q287 233 333 168T501 102Q570 102 628 131T735 210T821 320V553Q821 672 821
776T821 991H950Q950 880 950 775T950 543V439Q950 317 950 214T950 0H835L832 180H816Q785 136 735 90T616 11T463 -21ZM675 1160Q745 1259 815 1358T953 1553L1104 1557Q1050 1490 997 1424T891 1293T786 1163L675 1160Z" />
<glyph unicode="&#xfb;" horiz-adv-x="1111" d="M463 -21Q302 -21 231 71T159 335Q159 400 159 448T159 543Q159 629 159 703T159 847T159 991L287 996Q287 886 287 779T287 553V361Q287 233 333 168T501 102Q570 102 628 131T735 210T821 320V553Q821 672 821
776T821 991H950Q950 880 950 775T950 543V439Q950 317 950 214T950 0H835L832 180H816Q785 136 735 90T616 11T463 -21ZM1050 1158Q984 1242 920 1324T789 1490H828Q762 1406 698 1326T568 1162H457Q526 1260 596 1358T735 1553H882Q951 1456 1020 1358T1160 1161L1050
1158Z" />
<glyph unicode="&#xfc;" horiz-adv-x="1111" d="M463 -21Q302 -21 231 71T159 335Q159 400 159 448T159 543Q159 629 159 703T159 847T159 991L287 996Q287 886 287 779T287 553V361Q287 233 333 168T501 102Q570 102 628 131T735 210T821 320V553Q821 672 821
776T821 991H950Q950 880 950 775T950 543V439Q950 317 950 214T950 0H835L832 180H816Q785 136 735 90T616 11T463 -21ZM1017 1224Q975 1224 949 1250T922 1328Q922 1380 949 1406T1019 1433Q1063 1433 1088 1406T1114 1328Q1114 1277 1088 1251T1017 1224ZM601
1224Q559 1224 533 1250T506 1328Q506 1380 533 1406T603 1433Q647 1433 673 1406T699 1328Q699 1277 673 1251T601 1224Z" />
<glyph unicode="&#xfd;" horiz-adv-x="1018" d="M279 -389Q318 -292 358 -194T438 1V-37Q400 66 361 170T285 374L218 554Q179 661 137 773T55 991L194 996Q240 862 285 734T376 472L492 140H507L633 474Q683 604 731 732T828 991H963Q931 911 902 837T837 672T751
458L640 179Q565 -11 513 -143T416 -384L279 -389ZM630 1160Q700 1259 770 1358T908 1553L1059 1557Q1005 1490 952 1424T846 1293T741 1163L630 1160Z" />
<glyph unicode="&#xfe;" horiz-adv-x="1183" d="M185 -389Q185 -278 185 -173T185 55V988Q185 1114 185 1232T185 1463L314 1482Q314 1362 314 1241T314 988V874H330Q358 909 404 941T510 993T643 1013Q778 1013 874 946T1022 763T1074 499Q1074 360 1026 242T883
51T644 -21Q576 -21 519 -4T414 48T327 129H314V50Q314 -68 314 -170T314 -384L185 -389ZM611 98Q727 98 800 155T907 303T942 498Q942 607 906 696T795 839T608 893Q550 893 496 876T395 826T314 742V274Q347 219 390 180T489 120T611 98Z" />
<glyph unicode="&#xff;" horiz-adv-x="1018" d="M279 -389Q318 -292 358 -194T438 1V-37Q400 66 361 170T285 374L218 554Q179 661 137 773T55 991L194 996Q240 862 285 734T376 472L492 140H507L633 474Q683 604 731 732T828 991H963Q931 911 902 837T837 672T751
458L640 179Q565 -11 513 -143T416 -384L279 -389ZM972 1224Q930 1224 904 1250T877 1328Q877 1380 904 1406T974 1433Q1018 1433 1043 1406T1069 1328Q1069 1277 1043 1251T972 1224ZM556 1224Q514 1224 488 1250T461 1328Q461 1380 488 1406T558 1433Q602 1433
628 1406T654 1328Q654 1277 628 1251T556 1224Z" />
<glyph unicode="&#x2013;" horiz-adv-x="1165" d="M129 536V650Q221 650 306 650T466 650H699Q774 650 859 650T1036 650V536Q944 536 859 536T699 536H466Q392 536 307 536T129 536Z" />
<glyph unicode="&#x2014;" horiz-adv-x="1571" d="M129 536V650Q217 650 301 650T465 650T617 650H954Q1026 650 1105 650T1268 650T1441 650V536Q1353 536 1269 536T1105 536T954 536H617Q545 536 466 536T302 536T129 536Z" />
<glyph unicode="&#x2018;" horiz-adv-x="449" d="M203 964Q156 968 134 1000T112 1081Q112 1140 127 1199T168 1313T228 1415T300 1496L377 1498Q337 1442 315 1388T283 1274T273 1144Q273 1101 273 1057T273 969L203 964Z" />
<glyph unicode="&#x2019;" horiz-adv-x="449" d="M72 956Q111 1012 134 1066T166 1180T176 1310Q176 1353 176 1397T176 1485L246 1490Q293 1486 314 1454T336 1373Q336 1314 321 1255T280 1141T220 1040T149 958L72 956Z" />
<glyph unicode="&#x201a;" horiz-adv-x="449" d="M72 -314Q111 -258 134 -204T166 -90T176 40Q176 83 176 127T176 215L246 220Q293 216 314 184T336 103Q336 44 321 -15T280 -129T220 -230T149 -312L72 -314Z" />
<glyph unicode="&#x201c;" horiz-adv-x="782" d="M536 964Q489 968 468 1000T446 1081Q446 1140 461 1199T502 1313T562 1415T633 1496L710 1498Q671 1442 648 1388T616 1274T606 1144Q606 1101 606 1057T606 969L536 964ZM203 964Q156 968 134 1000T112 1081Q112
1140 127 1199T168 1313T228 1415T300 1496L377 1498Q337 1442 315 1388T283 1274T273 1144Q273 1101 273 1057T273 969L203 964Z" />
<glyph unicode="&#x201d;" horiz-adv-x="782" d="M405 956Q444 1012 467 1066T499 1180T509 1310Q509 1353 509 1397T509 1485L579 1490Q626 1486 647 1454T669 1373Q669 1314 654 1255T613 1141T553 1040T482 958L405 956ZM72 956Q111 1012 134 1066T166 1180T176
1310Q176 1353 176 1397T176 1485L246 1490Q293 1486 314 1454T336 1373Q336 1314 321 1255T280 1141T220 1040T149 958L72 956Z" />
<glyph unicode="&#x201e;" horiz-adv-x="782" d="M405 -314Q444 -258 467 -204T499 -90T509 40Q509 83 509 127T509 215L579 220Q626 216 647 184T669 103Q669 44 654 -15T613 -129T553 -230T482 -312L405 -314ZM72 -314Q111 -258 134 -204T166 -90T176 40Q176
83 176 127T176 215L246 220Q293 216 314 184T336 103Q336 44 321 -15T280 -129T220 -230T149 -312L72 -314Z" />
<glyph unicode="&#x2022;" horiz-adv-x="828" d="M412 356Q339 356 287 388T207 474T179 594Q179 660 207 712T287 796T414 827Q487 827 539 796T620 713T649 594Q649 528 621 474T539 388T412 356Z" />
<glyph unicode="&#x2039;" horiz-adv-x="655" d="M444 -4Q349 123 254 248T63 501Q159 627 254 753T444 1006L578 998Q485 875 393 753T208 508V492Q301 370 393 248T578 3L444 -4Z" />
<glyph unicode="&#x203a;" horiz-adv-x="655" d="M210 -4L76 4Q169 126 261 249T447 494V510Q354 632 262 754T76 999L210 1006Q306 879 401 753T592 501Q496 374 401 249T210 -4Z" />
</font>
</defs>
</svg>
